<?xml version="1.0" encoding="UTF-8" standalone="no"?>
<svg
   xmlns:svg="http://www.w3.org/2000/svg"
   xmlns="http://www.w3.org/2000/svg"
   xmlns:xlink="http://www.w3.org/1999/xlink"
   version="1.0"
   width="500"
   height="126"
   viewBox="0 0 394 96">
<defs>
   <marker id="arrow" markerUnits="userSpaceOnUse" markerWidth="12" markerHeight="12" refX="4.5" refY="6" orient="auto">
      <path d="M 3,3 4.5,6 3,9 9,6 z" style="stroke:#000000;stroke-width:2"/>
   </marker>
</defs>
<g
   transform="matrix(0.9811936,0,0,0.9830495,9.2751162e-4,3.2712475)"
   id="g2564">
   <rect x="0" y="-5" width="401.55078" height="101" id="path111" style="fill:#ffffff"/>
   <g style="stroke:#000000;stroke-width:2">
      <circle cx="69" cy="22.941404" r="4" id="path141"/>
      <g style="fill:#ffffff">
         <rect x="125" y="6.941404" width="67.44922" height="32" id="path113"/>
         <rect x="189" y="58.941404" width="67.44922" height="32" id="path157"/>
         <rect x="249" y="6.941404" width="67.44922" height="32" id="path235"/>
      </g>
      <g fill="none" marker-end="url(#arrow)">
         <line x1="73" y1="22.941404" x2="118.26562" y2="22.941404" id="path137"/>
         <line x1="1" y1="22.941404" x2="58.26562" y2="22.941404" id="path145"/>
         <line x1="316.44922" y1="22.941404" x2="386.8125" y2="22.941404" id="path149"/>
         <polyline points="355,22.941404 355,74.941404 263.1875,74.941404" id="path153"/>
         <polyline points="189,74.941404 69,74.941404 69,33.679684" id="path173"/>
         <line x1="192.44922" y1="22.941404" x2="242.26562" y2="22.941404" id="path251"/>
      </g>
   </g>
   <g style="font-family:DejaVu Sans">
      <text style="font-size:11.3"><tspan
         x="130" y="25.792969" id="g115">Controller</tspan><tspan
         x="202.69922" y="77.792969" id="g159">Sensor</tspan><tspan
         x="260.97656" y="25.792969" id="g237">System</tspan></text>
      <text style="font-size:11.3;font-weight:bold"><tspan
         x="56.292969" y="18.476562" id="g177">+</tspan><tspan
         x="54.26596" y="37.65625" id="g181">−</tspan></text>
      <text style="font-size:8.5"><tspan
         x="6.1601558" y="18.179688" id="g185">Reference</tspan><tspan
         x="76.035156" y="5.965855" id="g205">Measured</tspan><tspan
         x="86.8125" y="17.964844" id="g223">error</tspan><tspan
         x="203.26172" y="3.40625" id="g255">System</tspan><tspan
         x="208.3125" y="15.40625" id="g269">input</tspan><tspan
         x="323.16797" y="13.175781" id="g281">System output</tspan><tspan
         x="93.785156" y="69.527344" id="g309">Measured output</tspan></text>
   </g>
</g>
</svg>