<?xml version="1.0" encoding="UTF-8" standalone="no"?>
<!-- Created with Inkscape (http://www.inkscape.org/) -->
<svg xmlns:dc="http://purl.org/dc/elements/1.1/" xmlns:cc="http://web.resource.org/cc/" xmlns:rdf="http://www.w3.org/1999/02/22-rdf-syntax-ns#" xmlns:svg="http://www.w3.org/2000/svg" xmlns="http://www.w3.org/2000/svg" xmlns:sodipodi="http://sodipodi.sourceforge.net/DTD/sodipodi-0.dtd" xmlns:inkscape="http://www.inkscape.org/namespaces/inkscape" width="680" height="280" id="svg2" sodipodi:version="0.32" inkscape:version="0.45.1" sodipodi:docname="ideal_feedback_model.svg" inkscape:output_extension="org.inkscape.output.svg.inkscape" version="1.0">
  <defs id="defs4">
    <marker inkscape:stockid="Arrow2Mend" orient="auto" refY="0" refX="0" id="Arrow2Mend" style="overflow:visible">
      <path id="path3186" style="font-size:12px;fill-rule:evenodd;stroke-width:0.625;stroke-linejoin:round" d="M 8.7185878,4.0337352 L -2.2072895,0.016013256 L 8.7185884,-4.0017078 C 6.97309,-1.6296469 6.9831476,1.6157441 8.7185878,4.0337352 z " transform="scale(-0.6,-0.6)"/>
    </marker>
  </defs>
  <sodipodi:namedview id="base" pagecolor="#ffffff" bordercolor="#666666" borderopacity="1.0" gridtolerance="10.9" guidetolerance="10" objecttolerance="10" inkscape:pageopacity="0.0" inkscape:pageshadow="2" inkscape:zoom="2.8284272" inkscape:cx="388.67342" inkscape:cy="148.56549" inkscape:document-units="px" inkscape:current-layer="layer1" inkscape:window-width="960" inkscape:window-height="698" inkscape:window-x="251" inkscape:window-y="264" gridspacingx="4px" gridspacingy="4px" gridempspacing="10" showguides="false" showgrid="true" inkscape:grid-points="true"/>
  <metadata id="metadata7">
    <rdf:RDF>
      <cc:Work rdf:about="">
        <dc:format>image/svg+xml</dc:format>
        <dc:type rdf:resource="http://purl.org/dc/dcmitype/StillImage"/>
        <dc:title>Ideal feedback model schematic</dc:title>
        <dc:date>2007-09-30</dc:date>
        <dc:creator>
          <cc:Agent>
            <dc:title>Marti Raudsepp</dc:title>
          </cc:Agent>
        </dc:creator>
        <cc:license rdf:resource="http://web.resource.org/cc/PublicDomain"/>
      </cc:Work>
      <cc:License rdf:about="http://web.resource.org/cc/PublicDomain">
        <cc:permits rdf:resource="http://web.resource.org/cc/Reproduction"/>
        <cc:permits rdf:resource="http://web.resource.org/cc/Distribution"/>
        <cc:permits rdf:resource="http://web.resource.org/cc/DerivativeWorks"/>
      </cc:License>
    </rdf:RDF>
  </metadata>
  <g inkscape:label="Layer 1" inkscape:groupmode="layer" id="layer1" transform="translate(-120,-732.36218)">
    <path style="fill:#000000;fill-opacity:1;fill-rule:evenodd;stroke:none;stroke-width:4;stroke-linecap:butt;stroke-linejoin:miter;stroke-miterlimit:4;stroke-dasharray:none;stroke-opacity:1" d="M 615.0625 70.3125 C 616.73493 72.642699 617.73007 75.293718 618.0625 78 L 396 78 L 396 82 L 618.0625 82 C 617.73435 84.697565 616.74463 87.307814 615.0625 89.59375 L 641.3125 79.96875 L 615.0625 70.3125 z " transform="translate(120,732.36218)" id="path3358"/>
    <path style="fill:none;fill-rule:evenodd;stroke:#0000c0;stroke-width:3.23076916;stroke-linecap:butt;stroke-linejoin:miter;stroke-miterlimit:4;stroke-dasharray:none;stroke-opacity:1" d="M 440,772.36218 L 440,852.36218 L 520,812.36218 L 440,772.36218 z " id="path3356" transform="matrix(1.2380952,0,0,1.2380952,-125.8095,-193.41957)"/>
    <g id="g2229">
      <path style="fill:#000000;fill-opacity:1;fill-rule:evenodd;stroke:none;stroke-width:4;stroke-linecap:butt;stroke-linejoin:miter;stroke-miterlimit:4;stroke-dasharray:none;stroke-opacity:1" d="M 279.0625 70.3125 C 280.73493 72.642699 281.73007 75.293718 282.0625 78 L 240 78 L 240 82 L 282.0625 82 C 281.73435 84.697565 280.74463 87.307814 279.0625 89.59375 L 305.3125 79.96875 L 279.0625 70.3125 z " transform="translate(120,732.36218)" id="path3354"/>
    </g>
    <g id="g3145" transform="translate(0,-160)">
      <path transform="translate(0,-1.2817383e-2)" sodipodi:nodetypes="cc" id="path3129" d="M 320,940.375 L 320,1004.375" style="fill:none;fill-rule:evenodd;stroke:#008000;stroke-width:4;stroke-linecap:butt;stroke-linejoin:miter;stroke-miterlimit:4;stroke-dasharray:none;stroke-opacity:1"/>
      <path transform="translate(0,-1.2817383e-2)" sodipodi:nodetypes="cc" id="path3131" d="M 352,972.375 L 288,972.375" style="fill:none;fill-rule:evenodd;stroke:#008000;stroke-width:4;stroke-linecap:butt;stroke-linejoin:miter;stroke-miterlimit:4;stroke-dasharray:none;stroke-opacity:1"/>
      <path d="M 360 972.36218 A 40 40 0 1 1  280,972.36218 A 40 40 0 1 1  360 972.36218 z" sodipodi:ry="40" sodipodi:rx="40" sodipodi:cy="972.36218" sodipodi:cx="320" id="path3137" style="opacity:1;fill:none;fill-opacity:1;stroke:#008000;stroke-width:4;stroke-linecap:square;stroke-linejoin:round;stroke-miterlimit:4;stroke-dasharray:none;stroke-dashoffset:0;stroke-opacity:1" sodipodi:type="arc"/>
    </g>
    <switch style="font-size:12px;font-style:normal;font-weight:normal;fill:#000000;fill-opacity:1;stroke:none;stroke-width:1px;stroke-linecap:butt;stroke-linejoin:miter;stroke-opacity:1;font-family:Bitstream Vera Sans"><text xml:space="preserve" style="font-size:12px;font-style:normal;font-weight:normal;fill:#000000;fill-opacity:1;stroke:none;stroke-width:1px;stroke-linecap:butt;stroke-linejoin:miter;stroke-opacity:1;font-family:Bitstream Vera Sans" x="107.14286" y="811.64789" id="text3150-zh" transform="translate(49.323936,-16.454954)" systemLanguage="zh"><tspan sodipodi:role="line" id="tspan3152-zh" x="107.14286" y="811.64789" style="font-size:36px;text-align:start;text-anchor:start">輸入</tspan></text><text xml:space="preserve" style="font-size:12px;font-style:normal;font-weight:normal;fill:#000000;fill-opacity:1;stroke:none;stroke-width:1px;stroke-linecap:butt;stroke-linejoin:miter;stroke-opacity:1;font-family:Bitstream Vera Sans" x="107.14286" y="811.64789" id="text3150" transform="translate(49.323936,-16.454954)"><tspan sodipodi:role="line" id="tspan3152" x="107.14286" y="811.64789" style="font-size:36px;text-align:start;text-anchor:start">Input</tspan></text></switch>
    <path style="fill:#000000;fill-opacity:1;fill-rule:evenodd;stroke:none;stroke-width:4;stroke-linecap:butt;stroke-linejoin:miter;stroke-miterlimit:4;stroke-dasharray:none;stroke-opacity:1" d="M 139.0625 70.3125 C 140.73493 72.642699 141.73006 75.293718 142.0625 78 L 40 78 L 40 82 L 142.0625 82 C 141.73435 84.697565 140.74462 87.307814 139.0625 89.59375 L 165.3125 79.96875 L 139.0625 70.3125 z " transform="translate(120,732.36218)" id="path3154"/>
    <path style="fill:#000000;fill-opacity:1;fill-rule:evenodd;stroke:none;stroke-width:4;stroke-linecap:butt;stroke-linejoin:miter;stroke-miterlimit:4;stroke-dasharray:none;stroke-opacity:1" d="M 199.96875 114.6875 L 190.3125 140.9375 C 192.6427 139.26507 195.29372 138.26994 198 137.9375 L 198 200 L 198 202 L 200 202 L 280 202 L 280 198 L 202 198 L 202 137.9375 C 204.69757 138.26565 207.30781 139.25538 209.59375 140.9375 L 199.96875 114.6875 z " transform="translate(120,732.36218)" id="path3366"/>
    <path style="fill:none;fill-opacity:1;stroke:#c00000;stroke-width:3.26598654;stroke-linecap:square;stroke-linejoin:miter;stroke-miterlimit:4;stroke-dashoffset:0;stroke-opacity:1;stroke-dasharray:none" d="M 400,892.36218 L 520.00002,892.36218 L 520.00002,972.36218 L 400,972.36218 L 400,892.36218 z " id="rect3362" sodipodi:nodetypes="ccccc"/>
    <path style="fill:#000000;fill-opacity:1;fill-rule:evenodd;stroke:none;stroke-width:4;stroke-linecap:butt;stroke-linejoin:miter;stroke-miterlimit:4;stroke-dasharray:none;stroke-opacity:1" d="M 478 80 L 478 198 L 417.9375 198 C 418.26565 195.30243 419.25537 192.69219 420.9375 190.40625 L 394.6875 200.03125 L 420.9375 209.6875 C 419.26507 207.3573 418.26993 204.70628 417.9375 202 L 480 202 L 482 202 L 482 200 L 482 80 L 478 80 z " transform="translate(120,732.36218)" id="path3364"/>
    <path sodipodi:type="arc" style="opacity:1;fill:#cccccc;fill-opacity:1;stroke:#000000;stroke-width:5;stroke-linecap:square;stroke-linejoin:round;stroke-miterlimit:4;stroke-dasharray:none;stroke-dashoffset:0;stroke-opacity:1" id="path3360" sodipodi:cx="410" sodipodi:cy="902.36218" sodipodi:rx="10" sodipodi:ry="10" d="M 420 902.36218 A 10 10 0 1 1  400,902.36218 A 10 10 0 1 1  420 902.36218 z" transform="matrix(0.8,0,0,0.8,272,90.472437)"/>
    <switch style="font-size:12px;font-style:normal;font-weight:normal;fill:#000000;fill-opacity:1;stroke:none;stroke-width:1px;stroke-linecap:butt;stroke-linejoin:miter;stroke-opacity:1;font-family:Bitstream Vera Sans"><text id="text3370-zh" y="811.64789" x="107.14286" style="font-size:12px;font-style:normal;font-weight:normal;fill:#000000;fill-opacity:1;stroke:none;stroke-width:1px;stroke-linecap:butt;stroke-linejoin:miter;stroke-opacity:1;font-family:Bitstream Vera Sans" xml:space="preserve" transform="translate(653.73605,-16.454954)" systemLanguage="zh"><tspan style="font-size:36px;text-align:end;text-anchor:end" y="811.64789" x="107.14286" id="tspan3372-zh" sodipodi:role="line">輸出</tspan></text><text id="text3370" y="811.64789" x="107.14286" style="font-size:12px;font-style:normal;font-weight:normal;fill:#000000;fill-opacity:1;stroke:none;stroke-width:1px;stroke-linecap:butt;stroke-linejoin:miter;stroke-opacity:1;font-family:Bitstream Vera Sans" xml:space="preserve" transform="translate(653.73605,-16.454954)"><tspan style="font-size:36px;text-align:end;text-anchor:end" y="811.64789" x="107.14286" id="tspan3372" sodipodi:role="line">Output</tspan></text></switch>
    <switch style="font-size:12px;font-style:normal;font-weight:normal;fill:#0000c0;fill-opacity:1;stroke:none;stroke-width:1px;stroke-linecap:butt;stroke-linejoin:miter;stroke-opacity:1;font-family:Bitstream Vera Sans"><text xml:space="preserve" style="font-size:12px;font-style:normal;font-weight:normal;fill:#0000c0;fill-opacity:1;stroke:none;stroke-width:1px;stroke-linecap:butt;stroke-linejoin:miter;stroke-opacity:1;font-family:Bitstream Vera Sans" x="345" y="79" id="text3379" transform="translate(90.59374,748.85827)"><tspan sodipodi:role="line" id="tspan3381" x="345" y="79" style="font-size:48px;fill:#0000c0;fill-opacity:1">A</tspan></text></switch>
    <switch style="font-size:12px;font-style:normal;font-weight:normal;fill:#c00000;fill-opacity:1;stroke:none;stroke-width:1px;stroke-linecap:butt;stroke-linejoin:miter;stroke-opacity:1;font-family:Bitstream Vera Sans"><text transform="translate(97.878868,870.85828)" id="text3390" y="79" x="345" style="font-size:12px;font-style:normal;font-weight:normal;fill:#c00000;fill-opacity:1;stroke:none;stroke-width:1px;stroke-linecap:butt;stroke-linejoin:miter;stroke-opacity:1;font-family:Bitstream Vera Sans" xml:space="preserve"><tspan style="font-size:48px;fill:#c00000;fill-opacity:1" y="79" x="345" id="tspan3392" sodipodi:role="line">B</tspan></text></switch>
  </g>
</svg>
