<svg xmlns="http://www.w3.org/2000/svg" xmlns:xlink="http://www.w3.org/1999/xlink" width="355.899" height="201.481" viewBox="0 0 266.924 151.111"><defs><symbol id="a" overflow="visible"><path d="M1.094-3.422V-.75c0 .438-.11.438-.782.438V0c.36-.016.86-.031 1.141-.031.25 0 .766.015 1.11.031v-.313c-.672 0-.782 0-.782-.437v-1.844c0-1.031.719-1.594 1.344-1.594.64 0 .75.532.75 1.11V-.75c0 .438-.11.438-.781.438V0c.344-.016.86-.031 1.125-.031.25 0 .781.015 1.11.031v-.313c-.657 0-.766 0-.766-.437v-1.844c0-1.031.703-1.594 1.343-1.594.625 0 .735.532.735 1.11V-.75c0 .438-.11.438-.782.438V0c.344-.016.86-.031 1.125-.031.266 0 .782.015 1.125.031v-.313c-.515 0-.765 0-.78-.296v-1.907c0-.859 0-1.156-.313-1.515-.141-.172-.47-.375-1.047-.375-.828 0-1.282.593-1.438.984-.14-.875-.875-.984-1.328-.984-.734 0-1.203.422-1.484 1.047v-1.047l-1.407.11v.312c.704 0 .782.062.782.562Zm0 0" style="stroke:none"/></symbol><symbol id="b" overflow="visible"><path d="M3.313-.75c.046.39.312.813.78.813.22 0 .829-.141.829-.954v-.562h-.25v.562c0 .579-.25.641-.36.641-.328 0-.375-.453-.375-.5v-1.984c0-.422 0-.813-.359-1.188-.39-.39-.89-.547-1.36-.547-.827 0-1.515.469-1.515 1.125 0 .297.203.469.469.469a.435.435 0 0 0 .453-.453c0-.125-.047-.453-.516-.453.282-.36.766-.469 1.079-.469.5 0 1.062.39 1.062 1.281v.36c-.516.03-1.203.062-1.828.359-.75.344-1 .86-1 1.297 0 .812.969 1.062 1.594 1.062.656 0 1.109-.406 1.296-.859ZM3.25-2.39v1c0 .937-.719 1.28-1.172 1.28-.484 0-.89-.343-.89-.843 0-.547.421-1.375 2.062-1.438Zm0 0" style="stroke:none"/></symbol><symbol id="c" overflow="visible"><path d="M1.672-3.313v-1.093l-1.39.11v.312c.702 0 .78.062.78.562V-.75c0 .438-.109.438-.78.438V0c.39-.016.859-.031 1.14-.031.39 0 .86 0 1.266.031v-.313h-.22c-.734 0-.75-.109-.75-.468v-1.531c0-.985.423-1.876 1.173-1.876.062 0 .093 0 .109.016-.031 0-.234.125-.234.39 0 .266.218.423.437.423a.421.421 0 0 0 .422-.438c0-.312-.313-.61-.734-.61-.735 0-1.094.673-1.22 1.095Zm0 0" style="stroke:none"/></symbol><symbol id="d" overflow="visible"><path d="M2.219-1.719c-.875 0-.875-1-.875-1.218 0-.266.015-.594.156-.844.078-.11.313-.39.719-.39.86 0 .86.984.86 1.218 0 .265 0 .594-.157.844-.078.109-.313.39-.703.39Zm-1.156.39c0-.03 0-.265.156-.468.39.281.812.313 1 .313.922 0 1.61-.688 1.61-1.454 0-.374-.157-.734-.407-.968.36-.344.719-.39.89-.39.032 0 .079 0 .11.015-.11.031-.172.14-.172.265 0 .172.14.282.297.282a.28.28 0 0 0 .281-.297c0-.172-.11-.485-.5-.485-.203 0-.64.063-1.062.47a1.652 1.652 0 0 0-1.047-.36c-.938 0-1.625.687-1.625 1.453 0 .437.219.812.469 1.031-.125.14-.313.469-.313.828 0 .313.14.688.453.89-.61.157-.922.595-.922.985 0 .719.985 1.266 2.203 1.266 1.172 0 2.204-.5 2.204-1.281 0-.344-.125-.86-.641-1.141-.531-.266-1.11-.266-1.719-.266-.25 0-.672 0-.75-.015-.312-.047-.516-.344-.516-.672ZM2.5 1.829C1.484 1.828.797 1.312.797.781c0-.453.375-.828.812-.844h.594c.86 0 1.969 0 1.969.844 0 .547-.703 1.047-1.672 1.047Zm0 0" style="stroke:none"/></symbol><symbol id="e" overflow="visible"><path d="m1.766-4.406-1.391.11v.312c.64 0 .734.062.734.546V-.75c0 .438-.109.438-.78.438V0c.312-.016.859-.031 1.093-.031.36 0 .703.015 1.047.031v-.313c-.672 0-.703-.046-.703-.437Zm.03-1.735a.514.514 0 0 0-.515-.53.537.537 0 0 0-.531.53c0 .266.219.532.531.532a.514.514 0 0 0 .516-.532Zm0 0" style="stroke:none"/></symbol><symbol id="f" overflow="visible"><path d="M1.094-3.422V-.75c0 .438-.11.438-.782.438V0c.36-.016.86-.031 1.141-.031.25 0 .766.015 1.11.031v-.313c-.672 0-.782 0-.782-.437v-1.844c0-1.031.719-1.594 1.344-1.594.64 0 .75.532.75 1.11V-.75c0 .438-.11.438-.781.438V0c.344-.016.86-.031 1.125-.031.25 0 .781.015 1.11.031v-.313c-.516 0-.766 0-.766-.296v-1.907c0-.859 0-1.156-.313-1.515-.14-.172-.469-.375-1.047-.375-.734 0-1.203.422-1.484 1.047v-1.047l-1.407.11v.312c.704 0 .782.062.782.562Zm0 0" style="stroke:none"/></symbol><symbol id="g" overflow="visible"><path d="M3.297 2.39c0-.03 0-.046-.172-.218C1.891.922 1.562-.968 1.562-2.5c0-1.734.375-3.469 1.61-4.703.125-.125.125-.14.125-.172 0-.078-.031-.11-.094-.11-.11 0-1 .688-1.594 1.954C1.11-4.438.984-3.328.984-2.5c0 .781.11 1.984.657 3.125C2.25 1.844 3.094 2.5 3.203 2.5c.063 0 .094-.031.094-.11Zm0 0" style="stroke:none"/></symbol><symbol id="l" overflow="visible"><path d="M2.875-2.5c0-.766-.11-1.969-.656-3.11C1.625-6.827.766-7.483.672-7.483a.107.107 0 0 0-.11.109c0 .031 0 .047.188.234.984.985 1.547 2.563 1.547 4.641 0 1.719-.36 3.469-1.594 4.719-.14.125-.14.14-.14.172 0 .062.046.109.109.109.094 0 1-.688 1.578-1.953.516-1.094.625-2.203.625-3.047Zm0 0" style="stroke:none"/></symbol><symbol id="r" overflow="visible"><path d="M4.578-3.188c0-.796-.047-1.593-.39-2.328C3.733-6.484 2.905-6.64 2.5-6.64c-.61 0-1.328.266-1.75 1.188-.313.687-.36 1.469-.36 2.266 0 .75.032 1.64.454 2.406a1.83 1.83 0 0 0 1.64 1c.532 0 1.297-.203 1.735-1.157.312-.687.36-1.468.36-2.25ZM2.484 0c-.39 0-.984-.25-1.156-1.203-.11-.594-.11-1.516-.11-2.11 0-.64 0-1.296.079-1.828.187-1.187.937-1.28 1.187-1.28.329 0 .985.187 1.172 1.171.11.563.11 1.313.11 1.938 0 .75 0 1.421-.11 2.062C3.5-.297 2.937 0 2.484 0Zm0 0" style="stroke:none"/></symbol><symbol id="s" overflow="visible"><path d="M2.938-6.375c0-.25 0-.266-.235-.266C2.078-6 1.203-6 .891-6v.313c.203 0 .78 0 1.296-.266v5.172c0 .36-.03.469-.921.469H.953V0c.344-.031 1.203-.031 1.61-.031.39 0 1.265 0 1.609.031v-.313h-.313c-.906 0-.921-.109-.921-.468Zm0 0" style="stroke:none"/></symbol><symbol id="t" overflow="visible"><path d="m1.266-.766 1.062-1.03c1.547-1.376 2.14-1.907 2.14-2.907 0-1.14-.89-1.938-2.109-1.938C1.234-6.64.5-5.719.5-4.828c0 .547.5.547.531.547.172 0 .516-.11.516-.532a.513.513 0 0 0-.531-.515c-.079 0-.094 0-.125.016.218-.657.765-1.016 1.343-1.016.907 0 1.329.812 1.329 1.625 0 .797-.485 1.578-1.047 2.203L.609-.375C.5-.265.5-.235.5 0h3.703l.266-1.734h-.235C4.172-1.438 4.11-1 4-.844c-.063.078-.719.078-.938.078Zm0 0" style="stroke:none"/></symbol><symbol id="u" overflow="visible"><path d="M2.89-3.516c.813-.265 1.391-.953 1.391-1.75 0-.812-.875-1.375-1.828-1.375-1 0-1.765.594-1.765 1.36 0 .328.218.515.515.515.297 0 .5-.218.5-.515 0-.485-.469-.485-.61-.485.298-.5.954-.625 1.313-.625.422 0 .969.22.969 1.11 0 .125-.031.703-.281 1.14-.297.485-.64.516-.89.516a3.29 3.29 0 0 1-.392.031c-.078.016-.14.031-.14.125 0 .11.062.11.234.11h.438c.812 0 1.187.671 1.187 1.656 0 1.36-.687 1.64-1.125 1.64-.437 0-1.187-.171-1.531-.75.344.047.656-.171.656-.546a.537.537 0 0 0-.547-.563c-.25 0-.562.14-.562.578C.422-.437 1.344.22 2.437.22c1.22 0 2.126-.906 2.126-1.922 0-.813-.641-1.594-1.672-1.813Zm0 0" style="stroke:none"/></symbol><symbol id="x" overflow="visible"><path d="M5.453-6.453c.063-.11.063-.125.063-.203 0-.157-.047-.157-.25-.157H.796l-.109 2.25h.25C1-5.688 1.313-6.5 2.938-6.5H4.5L.625-.375c-.063.11-.063.125-.063.203C.563 0 .61 0 .813 0h4.594l.172-2.656h-.25C5.25-1.281 5.062-.344 3.218-.344h-1.64Zm0 0" style="stroke:none"/></symbol><symbol id="y" overflow="visible"><path d="M1.11-2.516C1.171-4 2.015-4.25 2.36-4.25c1.015 0 1.124 1.344 1.124 1.734Zm0 .22h2.78c.22 0 .25 0 .25-.22 0-.984-.546-1.953-1.78-1.953C1.202-4.469.28-3.437.28-2.187.281-.86 1.328.108 2.47.108 3.688.11 4.14-1 4.14-1.187c0-.094-.079-.125-.141-.125-.078 0-.11.062-.125.14C3.531-.14 2.625-.14 2.531-.14c-.5 0-.89-.296-1.125-.671-.297-.47-.297-1.125-.297-1.485Zm0 0" style="stroke:none"/></symbol><symbol id="z" overflow="visible"><path d="M4.688-2.14c0-1.266-.985-2.329-2.188-2.329C1.25-4.469.281-3.375.281-2.14A2.22 2.22 0 0 0 2.484.11c1.204 0 2.204-.984 2.204-2.25ZM2.5-.14c-.438 0-.875-.204-1.14-.672-.25-.438-.25-1.047-.25-1.407 0-.39 0-.922.234-1.36a1.347 1.347 0 0 1 1.14-.671c.438 0 .86.219 1.125.656.266.422.266 1 .266 1.375 0 .36 0 .906-.219 1.344-.234.453-.672.734-1.156.734Zm0 0" style="stroke:none"/></symbol><symbol id="A" overflow="visible"><path d="M2.75-1.86v-.577H.11v.578Zm0 0" style="stroke:none"/></symbol><symbol id="B" overflow="visible"><path d="M7.188-3.375c0-2.031-1.5-3.656-3.313-3.656-1.797 0-3.313 1.593-3.313 3.656C.563-1.328 2.095.219 3.876.219c1.813 0 3.313-1.578 3.313-3.594ZM3.874-.047c-.953 0-2.297-.875-2.297-3.469 0-2.578 1.469-3.265 2.297-3.265.86 0 2.281.703 2.281 3.265 0 2.641-1.36 3.47-2.281 3.47Zm0 0" style="stroke:none"/></symbol><symbol id="C" overflow="visible"><path d="M6.11-6.031c0-.36.015-.469.78-.469h.25v-.313c-.359.032-1.093.032-1.468.032s-1.125 0-1.469-.032v.313h.234c.766 0 .782.11.782.469v2.328H2.25v-2.328c0-.36.016-.469.781-.469h.235v-.313c-.344.032-1.079.032-1.47.032-.374 0-1.124 0-1.468-.032v.313h.234c.766 0 .797.11.797.469v5.25c0 .36-.03.469-.796.469H.328V0c.344-.031 1.094-.031 1.469-.031s1.125 0 1.469.031v-.313H3.03c-.765 0-.781-.109-.781-.468v-2.61h2.969v2.61c0 .36-.016.469-.782.469h-.234V0c.344-.031 1.078-.031 1.453-.031.39 0 1.125 0 1.485.031v-.313h-.25c-.766 0-.782-.109-.782-.468Zm0 0" style="stroke:none"/></symbol><symbol id="D" overflow="visible"><path d="M5.797-2.578h-.25c-.11 1.015-.25 2.265-2 2.265h-.813c-.468 0-.484-.062-.484-.39v-5.313c0-.343 0-.484.938-.484h.328v-.313c-.36.032-1.266.032-1.672.032-.39 0-1.172 0-1.516-.032v.313h.234c.766 0 .797.11.797.469v5.25c0 .36-.03.469-.796.469H.328V0h5.188Zm0 0" style="stroke:none"/></symbol><symbol id="E" overflow="visible"><path d="M2.078-1.938c.219.047 1.031.204 1.031.922 0 .5-.343.907-1.125.907-.843 0-1.203-.563-1.39-1.422-.031-.125-.031-.157-.14-.157-.126 0-.126.063-.126.235v1.328c0 .172 0 .234.11.234C.483.11.5.094.688-.094.703-.109.703-.125.89-.312c.437.406.89.421 1.093.421 1.141 0 1.61-.671 1.61-1.39 0-.516-.297-.828-.422-.938-.328-.328-.719-.406-1.14-.484-.563-.11-1.22-.235-1.22-.813 0-.359.25-.765 1.11-.765 1.094 0 1.156.906 1.172 1.203 0 .094.094.094.11.094.14 0 .14-.047.14-.235v-1.015c0-.157 0-.235-.11-.235-.046 0-.078 0-.203.125-.031.032-.125.125-.172.157-.375-.282-.78-.282-.937-.282-1.219 0-1.594.672-1.594 1.235 0 .343.156.625.422.843.328.25.61.313 1.328.454Zm0 0" style="stroke:none"/></symbol><symbol id="F" overflow="visible"><path d="M1.719-3.984h1.437v-.313H1.72v-1.828h-.25c0 .813-.297 1.875-1.282 1.922v.219h.844v2.75c0 1.218.938 1.343 1.297 1.343.703 0 .985-.703.985-1.343v-.563h-.25v.547c0 .734-.297 1.11-.672 1.11-.672 0-.672-.907-.672-1.079Zm0 0" style="stroke:none"/></symbol><symbol id="G" overflow="visible"><path d="M1.172-2.172c0-1.625.812-2.047 1.344-2.047.093 0 .718.016 1.062.375-.406.031-.469.328-.469.453 0 .266.188.454.454.454.265 0 .468-.157.468-.47 0-.671-.765-1.062-1.531-1.062C1.25-4.469.344-3.39.344-2.156c0 1.281.984 2.265 2.14 2.265 1.329 0 1.657-1.203 1.657-1.296 0-.094-.11-.094-.141-.094-.078 0-.11.031-.125.093C3.594-.265 2.937-.14 2.578-.14c-.531 0-1.406-.421-1.406-2.03Zm0 0" style="stroke:none"/></symbol><symbol id="h" overflow="visible"><path d="M7.344-3.75c.047-.125.093-.203.687-.203v-.469a12.55 12.55 0 0 1-.781.031c-.266 0-.734-.03-.953-.03v.468c.094 0 .578 0 .578.11 0 .03-.031.093-.031.124L5.797-1.172l-1.14-2.781h.562v-.469c-.328 0-.844.031-1.14.031-.423 0-.845-.03-1-.03v.468h.593c.203.5.203.515.203.531 0 .031-.031.094-.031.125L3.047-1.39 2-3.953h.563v-.469c-.407.016-.813.031-1.235.031-.297 0-.734-.03-1.078-.03v.468h.594L2.359-.234c.079.172.11.28.36.28s.297-.108.36-.28L4.14-2.813 5.187-.233c.079.172.11.28.36.28s.297-.108.36-.28Zm0 0" style="stroke:none"/></symbol><symbol id="i" overflow="visible"><path d="M1.906-2.5a.524.524 0 1 0-1.047.016.524.524 0 0 0 1.047-.016Zm0 0" style="stroke:none"/></symbol><symbol id="j" overflow="visible"><path d="M4.36-6.672c0-.031.03-.14.03-.14 0-.016 0-.11-.124-.11-.094 0-.11.031-.157.203l-.578 2.297C1.953-4.359.484-3.047.484-1.688c0 .954.704 1.735 1.922 1.813-.078.297-.156.625-.234.938-.125.468-.219.843-.219.875 0 .093.078.109.125.109s.063-.016.094-.047c.015-.016.078-.25.11-.39L2.655.124C4.266.062 5.72-1.281 5.72-2.609c0-.797-.532-1.704-1.922-1.813ZM2.452-.094c-.594-.031-1.312-.39-1.312-1.375 0-1.203.859-2.593 2.343-2.734Zm1.281-4.11c.766.048 1.329.5 1.329 1.376 0 1.187-.86 2.61-2.344 2.734Zm0 0" style="stroke:none"/></symbol><symbol id="k" overflow="visible"><path d="M3.328-3.016c.063-.25.297-1.171.985-1.171.046 0 .296 0 .5.125a.578.578 0 0 0-.47.546c0 .157.11.344.376.344a.546.546 0 0 0 .531-.578c0-.516-.578-.656-.922-.656-.578 0-.922.531-1.047.75-.25-.656-.781-.75-1.078-.75-1.031 0-1.61 1.281-1.61 1.531 0 .11.11.11.126.11.078 0 .11-.032.125-.11.344-1.063 1-1.313 1.344-1.313.187 0 .53.094.53.672 0 .313-.171.97-.53 2.375-.157.61-.516 1.032-.954 1.032-.062 0-.28 0-.5-.125.25-.063.47-.266.47-.547 0-.266-.22-.344-.36-.344-.313 0-.547.25-.547.578 0 .453.484.656.922.656.672 0 1.031-.703 1.047-.75.125.36.484.75 1.078.75 1.031 0 1.594-1.28 1.594-1.53 0-.11-.079-.11-.11-.11-.094 0-.11.047-.14.11-.329 1.077-1 1.312-1.313 1.312-.39 0-.547-.313-.547-.657 0-.218.047-.437.156-.875Zm0 0" style="stroke:none"/></symbol><symbol id="m" overflow="visible"><path d="M4.844-3.797c.047-.14.047-.156.047-.234 0-.172-.141-.266-.297-.266a.455.455 0 0 0-.344.203c-.016.063-.11.36-.14.547-.079.25-.141.531-.204.797L3.453-.953c-.031.14-.469.844-1.125.844-.5 0-.61-.438-.61-.813 0-.453.173-1.078.5-1.953.157-.406.204-.516.204-.719 0-.437-.313-.812-.813-.812-.953 0-1.312 1.453-1.312 1.531 0 .11.094.11.11.11.109 0 .109-.032.156-.188.28-.938.671-1.235 1.015-1.235.078 0 .25 0 .25.313 0 .25-.11.516-.172.703-.406 1.063-.578 1.625-.578 2.094 0 .89.625 1.187 1.219 1.187.39 0 .719-.171 1-.453-.125.516-.25 1.016-.64 1.547-.266.328-.641.625-1.095.625-.14 0-.593-.031-.765-.422.156 0 .297 0 .422-.125a.493.493 0 0 0 .203-.406c0-.313-.266-.344-.36-.344C.829.531.5.687.5 1.171c0 .5.438.876 1.063.876 1.015 0 2.046-.906 2.328-2.031Zm0 0" style="stroke:none"/></symbol><symbol id="n" overflow="visible"><path d="M3.734-6.031c.079-.36.11-.469 1.047-.469.297 0 .375 0 .375-.188 0-.125-.11-.125-.156-.125-.328 0-1.14.032-1.469.032-.297 0-1.031-.032-1.328-.032-.062 0-.187 0-.187.204 0 .109.093.109.28.109.017 0 .204 0 .376.016.172.03.265.03.265.171 0 .032 0 .063-.03.188L1.561-.781c-.093.39-.109.469-.906.469-.172 0-.265 0-.265.203C.39 0 .484 0 .656 0h4.625c.235 0 .235 0 .297-.172l.797-2.156c.031-.11.031-.125.031-.14 0-.032-.031-.11-.11-.11-.093 0-.109.062-.171.219-.344.906-.781 2.046-2.5 2.046H2.469c-.11-.015-.14-.03-.14-.109 0-.031 0-.047.046-.219Zm0 0" style="stroke:none"/></symbol><symbol id="o" overflow="visible"><path d="M4.672-2.719c0-1.047-.688-1.687-1.594-1.687C1.75-4.406.406-2.984.406-1.578.406-.594 1.078.109 2 .109c1.328 0 2.672-1.375 2.672-2.828ZM2.016-.109c-.438 0-.875-.313-.875-1.094 0-.484.265-1.563.578-2.063.5-.765 1.078-.921 1.36-.921.577 0 .874.484.874 1.078 0 .39-.203 1.437-.578 2.078-.36.578-.906.922-1.36.922Zm0 0" style="stroke:none"/></symbol><symbol id="p" overflow="visible"><path d="M3.89-3.734c-.265.015-.468.234-.468.453 0 .14.094.297.312.297.22 0 .454-.172.454-.563 0-.453-.422-.86-1.188-.86-1.313 0-1.688 1.016-1.688 1.454 0 .781.735.922 1.032.984.515.11 1.031.219 1.031.766 0 .25-.219 1.094-1.422 1.094-.14 0-.906 0-1.14-.532.39.047.64-.25.64-.53 0-.22-.172-.345-.375-.345-.266 0-.562.204-.562.657 0 .562.578.968 1.421.968 1.625 0 2.016-1.203 2.016-1.656a.97.97 0 0 0-.312-.719c-.266-.28-.563-.343-1-.421-.36-.079-.75-.157-.75-.61 0-.281.234-.89 1.109-.89.25 0 .75.078.89.453Zm0 0" style="stroke:none"/></symbol><symbol id="q" overflow="visible"><path d="M2.031-.016c0-.656-.25-1.046-.64-1.046a.517.517 0 0 0-.532.53c0 .266.204.532.532.532a.58.58 0 0 0 .343-.125c.032-.031.047-.031.047-.031.016 0 .016 0 .016.14 0 .75-.344 1.344-.672 1.672-.11.11-.11.125-.11.157 0 .078.048.109.094.109.11 0 .922-.766.922-1.938Zm0 0" style="stroke:none"/></symbol><clipPath id="v"><path d="M0 0h217v151.11H0Zm0 0"/></clipPath><clipPath id="w"><path d="M200 0h66.926v52H200Zm0 0"/></clipPath></defs><path d="M-90.709-.001H90.252" style="fill:none;stroke-width:.3985;stroke-linecap:butt;stroke-linejoin:miter;stroke:#000;stroke-opacity:1;stroke-miterlimit:10" transform="matrix(1 0 0 -1 90.908 135.858)"/><path d="M-1.195 1.592C-1.097.995.001.1.298 0 0-.1-1.097-.997-1.195-1.595" style="fill:none;stroke-width:.31879;stroke-linecap:round;stroke-linejoin:round;stroke:#000;stroke-opacity:1;stroke-miterlimit:10" transform="matrix(1 0 0 -1 181.16 135.858)"/><g style="fill:#000;fill-opacity:1"><use xlink:href="#a" x="185.136" y="138.348"/><use xlink:href="#b" x="193.438" y="138.348"/><use xlink:href="#c" x="198.419" y="138.348"/><use xlink:href="#d" x="202.321" y="138.348"/><use xlink:href="#e" x="207.303" y="138.348"/><use xlink:href="#f" x="210.07" y="138.348"/><use xlink:href="#g" x="215.606" y="138.348"/></g><use xlink:href="#h" x="219.48" y="138.348" style="fill:#000;fill-opacity:1"/><use xlink:href="#i" x="230.127" y="138.348" style="fill:#000;fill-opacity:1"/><use xlink:href="#j" x="235.108" y="138.348" style="fill:#000;fill-opacity:1"/><use xlink:href="#g" x="241.044" y="138.348" style="fill:#000;fill-opacity:1"/><use xlink:href="#k" x="244.919" y="138.348" style="fill:#000;fill-opacity:1"/><g style="fill:#000;fill-opacity:1"><use xlink:href="#l" x="250.613" y="138.348"/><use xlink:href="#l" x="254.487" y="138.348"/></g><use xlink:href="#m" x="258.361" y="138.348" style="fill:#000;fill-opacity:1"/><path d="M-.002-.001v118.597" style="fill:none;stroke-width:.3985;stroke-linecap:butt;stroke-linejoin:miter;stroke:#000;stroke-opacity:1;stroke-miterlimit:10" transform="matrix(1 0 0 -1 90.908 135.858)"/><path d="M-1.197 1.595C-1.096.998-.002.1.299.002c-.3-.102-1.395-.996-1.496-1.598" style="fill:none;stroke-width:.31879;stroke-linecap:round;stroke-linejoin:round;stroke:#000;stroke-opacity:1;stroke-miterlimit:10" transform="matrix(0 -1 -1 0 90.908 17.26)"/><g style="fill:#000;fill-opacity:1"><use xlink:href="#n" x="62.446" y="10.792"/><use xlink:href="#o" x="69.227" y="10.792"/><use xlink:href="#p" x="74.055" y="10.792"/><use xlink:href="#p" x="78.726" y="10.792"/></g><use xlink:href="#g" x="83.395" y="10.792" style="fill:#000;fill-opacity:1"/><g style="fill:#000;fill-opacity:1"><use xlink:href="#k" x="87.27" y="10.792"/><use xlink:href="#q" x="92.964" y="10.792"/></g><use xlink:href="#m" x="97.395" y="10.792" style="fill:#000;fill-opacity:1"/><use xlink:href="#q" x="102.638" y="10.792" style="fill:#000;fill-opacity:1"/><use xlink:href="#h" x="107.061" y="10.792" style="fill:#000;fill-opacity:1"/><use xlink:href="#l" x="115.495" y="10.792" style="fill:#000;fill-opacity:1"/><path d="M-.002 1.99v-3.984" style="fill:none;stroke-width:.3985;stroke-linecap:butt;stroke-linejoin:miter;stroke:#000;stroke-opacity:1;stroke-miterlimit:10" transform="matrix(1 0 0 -1 90.908 135.858)"/><use xlink:href="#r" x="88.417" y="147.79" style="fill:#000;fill-opacity:1"/><path d="M28.346 1.99v-3.984" style="fill:none;stroke-width:.3985;stroke-linecap:butt;stroke-linejoin:miter;stroke:#000;stroke-opacity:1;stroke-miterlimit:10" transform="matrix(1 0 0 -1 90.908 135.858)"/><use xlink:href="#s" x="116.764" y="147.79" style="fill:#000;fill-opacity:1"/><path d="M56.694 1.99v-3.984" style="fill:none;stroke-width:.3985;stroke-linecap:butt;stroke-linejoin:miter;stroke:#000;stroke-opacity:1;stroke-miterlimit:10" transform="matrix(1 0 0 -1 90.908 135.858)"/><use xlink:href="#t" x="145.11" y="147.79" style="fill:#000;fill-opacity:1"/><path d="M85.041 1.99v-3.984" style="fill:none;stroke-width:.3985;stroke-linecap:butt;stroke-linejoin:miter;stroke:#000;stroke-opacity:1;stroke-miterlimit:10" transform="matrix(1 0 0 -1 90.908 135.858)"/><use xlink:href="#u" x="173.456" y="147.79" style="fill:#000;fill-opacity:1"/><path d="M-.002 30.338v-3.984" style="fill:none;stroke-width:.3985;stroke-linecap:butt;stroke-linejoin:miter;stroke:#000;stroke-opacity:1;stroke-miterlimit:10" transform="matrix(1 0 0 -1 90.908 135.858)"/><use xlink:href="#s" x="82.407" y="112.714" style="fill:#000;fill-opacity:1"/><path d="M-85.04 28.346H-.003V0h85.043" style="fill:none;stroke-width:2.83466;stroke-linecap:butt;stroke-linejoin:miter;stroke:#0f0;stroke-opacity:.7;stroke-miterlimit:10" transform="matrix(1 0 0 -1 90.908 135.858)"/><g clip-path="url(#v)"><path d="M-85.04 113.385 28.345 0H85.04" style="fill:none;stroke-width:2.83466;stroke-linecap:butt;stroke-linejoin:miter;stroke:#ff8000;stroke-opacity:.7;stroke-miterlimit:10" transform="matrix(1 0 0 -1 90.908 135.858)"/><path d="M-85.04 124.67s5.12-7.015 7.085-9.68c1.969-2.667 5.121-6.913 7.086-9.534 1.969-2.621 5.121-6.785 7.09-9.352 1.965-2.562 5.117-6.629 7.086-9.125a838.605 838.605 0 0 1 7.086-8.867 691.444 691.444 0 0 1 7.086-8.54 526.046 526.046 0 0 1 7.086-8.152 419.89 419.89 0 0 1 7.09-7.718c1.964-2.07 5.117-5.29 7.085-7.215a276.646 276.646 0 0 1 7.086-6.656 226.763 226.763 0 0 1 7.086-6.055c1.97-1.594 5.121-4.016 7.086-5.434a167.397 167.397 0 0 1 7.09-4.785 153.626 153.626 0 0 1 7.086-4.172c1.965-1.07 5.121-2.648 7.086-3.562 1.965-.91 5.121-2.246 7.086-3.016a151.942 151.942 0 0 1 7.086-2.504 167.17 167.17 0 0 1 7.09-2.066 192.04 192.04 0 0 1 7.086-1.688c1.964-.421 5.12-1.02 7.086-1.359 1.964-.34 5.12-.82 7.085-1.094 1.97-.27 5.122-.656 7.086-.875a395.47 395.47 0 0 1 7.09-.687c1.965-.172 7.086-.547 7.086-.547" style="fill:none;stroke-width:2.83466;stroke-linecap:butt;stroke-linejoin:miter;stroke:#00f;stroke-opacity:.7;stroke-miterlimit:10" transform="matrix(1 0 0 -1 90.908 135.858)"/></g><g clip-path="url(#w)"><path d="M109.678 84.8h66.14v50.859h-66.14Zm0 0" style="fill:none;stroke-width:.3985;stroke-linecap:butt;stroke-linejoin:miter;stroke:#000;stroke-opacity:1;stroke-miterlimit:10" transform="matrix(1 0 0 -1 90.908 135.858)"/></g><path d="M.373-4.321A4.695 4.695 0 0 1-4.322.374a4.698 4.698 0 0 1 0-9.395 4.698 4.698 0 0 1 4.695 4.7Zm0 0" style="fill:none;stroke-width:2.83466;stroke-linecap:butt;stroke-linejoin:miter;stroke:#0f0;stroke-opacity:1;stroke-miterlimit:10" transform="matrix(1 0 0 -1 214.342 5.921)"/><g style="fill:#000;fill-opacity:1"><use xlink:href="#x" x="219.652" y="13.648"/><use xlink:href="#y" x="225.74" y="13.648"/><use xlink:href="#c" x="230.168" y="13.648"/><use xlink:href="#z" x="234.07" y="13.648"/><use xlink:href="#A" x="239.051" y="13.648"/><use xlink:href="#B" x="242.372" y="13.648"/><use xlink:href="#f" x="250.121" y="13.648"/><use xlink:href="#y" x="255.656" y="13.648"/></g><path d="M.373-4.321A4.695 4.695 0 0 1-4.322.374a4.698 4.698 0 0 1 0-9.395 4.698 4.698 0 0 1 4.695 4.7Zm0 0" style="fill:none;stroke-width:2.83466;stroke-linecap:butt;stroke-linejoin:miter;stroke:#ff8000;stroke-opacity:1;stroke-miterlimit:10" transform="matrix(1 0 0 -1 214.342 20.339)"/><g style="fill:#000;fill-opacity:1"><use xlink:href="#C" x="219.652" y="27.097"/><use xlink:href="#e" x="227.124" y="27.097"/><use xlink:href="#f" x="229.892" y="27.097"/><use xlink:href="#d" x="235.427" y="27.097"/><use xlink:href="#y" x="240.408" y="27.097"/></g><path d="M.373-4.322A4.695 4.695 0 0 1-4.322.373a4.698 4.698 0 0 1 0-9.395 4.698 4.698 0 0 1 4.695 4.7Zm0 0" style="fill:none;stroke-width:2.83466;stroke-linecap:butt;stroke-linejoin:miter;stroke:#00f;stroke-opacity:1;stroke-miterlimit:10" transform="matrix(1 0 0 -1 214.342 35.725)"/><g style="fill:#000;fill-opacity:1"><use xlink:href="#D" x="219.652" y="42.483"/><use xlink:href="#z" x="225.879" y="42.483"/><use xlink:href="#d" x="230.86" y="42.483"/><use xlink:href="#e" x="235.841" y="42.483"/><use xlink:href="#E" x="238.609" y="42.483"/><use xlink:href="#F" x="242.538" y="42.483"/><use xlink:href="#e" x="246.413" y="42.483"/><use xlink:href="#G" x="249.18" y="42.483"/></g></svg>