<?xml version="1.0" encoding="UTF-8" standalone="no"?>
<!-- Created with Inkscape (http://www.inkscape.org/) -->
<svg xmlns:svg="http://www.w3.org/2000/svg"
  xmlns="http://www.w3.org/2000/svg" version="1.0" width="517.84998" height="323.67001" id="svg2">
  <defs id="defs129" />
  <path d="M 506.4478,9.219461 L 317.4478,313.94387" style="fill:none;stroke:#ff6600;stroke-width:0.80900002;stroke-linejoin:round;stroke-miterlimit:4;stroke-dasharray:9.70800018, 9.70800018;stroke-dashoffset:2.58880005;stroke-opacity:1" id="path120" />
  <path d="M 317.94387,8.900563 L 389.4478,314.05017" style="fill:none;stroke:#009933;stroke-width:0.80900002;stroke-linejoin:round;stroke-miterlimit:4;stroke-dasharray:9.70800018, 9.70800018;stroke-dashoffset:5.90570011;stroke-opacity:1" id="path124" />
  <path d="M 12.90056,8.4045 L 505.95174,314.26276" style="fill:none;stroke:#ff6600;stroke-width:0.80900002;stroke-linejoin:round;stroke-miterlimit:4;stroke-dasharray:9.70800018, 9.70800018;stroke-dashoffset:7.20010014;stroke-opacity:1" id="path118" />
  <path d="M 12.4045,313.4478 L 506.16434,197.72339" style="fill:none;stroke:#009933;stroke-width:0.80900002;stroke-linejoin:round;stroke-miterlimit:4;stroke-dasharray:9.70800018, 9.70800018;stroke-dashoffset:1.77980003;stroke-opacity:1" id="path122" />
  <path d="M 368.55211,224.9342 L 368.55211,231.30721 L 368.59404,231.30721" style="fill:none;fill-rule:evenodd;stroke:#000000;stroke-width:0.94268799px;stroke-linecap:butt;stroke-linejoin:miter;stroke-opacity:1" id="path6161" />
  <path d="M 12.4045,313.4478 L 317.4478,313.94387" style="fill:none;stroke:#000000;stroke-width:0.80900002;stroke-linejoin:round;stroke-miterlimit:4;stroke-dasharray:none;stroke-opacity:1" id="path90" />
  <path d="M 317.4478,313.94387 L 317.94387,8.900563" style="fill:none;stroke:#000000;stroke-width:0.80900002;stroke-linejoin:round;stroke-miterlimit:4;stroke-dasharray:none;stroke-opacity:1" id="path92" />
  <path d="M 317.94387,8.900563 L 12.90056,8.4045" style="fill:none;stroke:#000000;stroke-width:0.80900002;stroke-linejoin:round;stroke-miterlimit:4;stroke-dasharray:none;stroke-opacity:1" id="path94" />
  <path d="M 12.90056,8.4045 L 12.4045,313.4478" style="fill:none;stroke:#000000;stroke-width:0.80900002;stroke-linejoin:round;stroke-miterlimit:4;stroke-dasharray:none;stroke-opacity:1" id="path96" />
  <path d="M 317.94387,8.900563 L 506.4478,9.219461" style="fill:none;stroke:#000000;stroke-width:0.80900002;stroke-linejoin:round;stroke-miterlimit:4;stroke-dasharray:none;stroke-opacity:1" id="path98" />
  <path d="M 317.4478,313.94387 L 505.95174,314.26276" style="fill:none;stroke:#000000;stroke-width:0.80900002;stroke-linejoin:round;stroke-miterlimit:4;stroke-dasharray:none;stroke-opacity:1" id="path100" />
  <path d="M 505.95174,314.26276 L 506.4478,9.219461" style="fill:none;stroke:#000000;stroke-width:0.80900002;stroke-linejoin:round;stroke-miterlimit:4;stroke-dasharray:none;stroke-opacity:1" id="path102" />
  <path d="M 317.62497,197.43993 L 506.16434,197.72339" style="fill:none;stroke:#000000;stroke-width:0.80900002;stroke-linejoin:round;stroke-miterlimit:4;stroke-dasharray:none;stroke-opacity:1" id="path104" />
  <path d="M 389.62497,197.54623 L 389.4478,314.05017" style="fill:none;stroke:#000000;stroke-width:0.80900002;stroke-linejoin:round;stroke-miterlimit:4;stroke-dasharray:none;stroke-opacity:1" id="path106" />
  <path d="M 317.5541,241.94387 L 389.5541,242.05017" style="fill:none;stroke:#000000;stroke-width:0.80900002;stroke-linejoin:round;stroke-miterlimit:4;stroke-dasharray:none;stroke-opacity:1" id="path108" />
  <path d="M 362.12891,197.5108 L 362.05804,242.01473" style="fill:none;stroke:#000000;stroke-width:0.80900002;stroke-linejoin:round;stroke-miterlimit:4;stroke-dasharray:none;stroke-opacity:1" id="path110" />
  <path d="M 362.09347,225.00686 L 389.58954,225.04229" style="fill:none;stroke:#000000;stroke-width:0.80900002;stroke-linejoin:round;stroke-miterlimit:4;stroke-dasharray:none;stroke-opacity:1" id="path112" />
  <path d="M 362.09347,231.49111 L 372.58166,231.52654" style="fill:none;stroke:#000000;stroke-width:0.80900002;stroke-linejoin:round;stroke-miterlimit:4;stroke-dasharray:none;stroke-opacity:1" id="path116" />
  <path d="M 317.94387,8.900563 C 237.05017,8.758831 159.38088,40.790322 102.0856,97.908432 C 44.79032,154.99111 12.54623,232.5541 12.4045,313.4478" style="fill:none;stroke:#0000cc;stroke-width:0.80900002;stroke-linejoin:round;stroke-miterlimit:4;stroke-dasharray:none;stroke-opacity:1" id="path70" />
  <path d="M 506.16434,197.72339 C 506.23521,147.72733 486.46355,99.750952 451.17221,64.353322 C 415.84544,28.920248 367.93993,8.971429 317.94387,8.900563" style="fill:none;stroke:#0000cc;stroke-width:0.80900002;stroke-linejoin:round;stroke-miterlimit:4;stroke-dasharray:none;stroke-opacity:1" id="path72" />
  <path d="M 389.4478,314.05017 C 420.34544,314.12103 450.00292,301.89662 471.90056,280.06985 C 493.7982,258.24308 506.09347,228.62103 506.16434,197.72339" style="fill:none;stroke:#0000cc;stroke-width:0.80900002;stroke-linejoin:round;stroke-miterlimit:4;stroke-dasharray:none;stroke-opacity:1" id="path74" />
  <path d="M 317.5541,241.94387 C 317.48324,281.69977 349.6919,313.9793 389.4478,314.05017" style="fill:none;stroke:#0000cc;stroke-width:0.80900002;stroke-linejoin:round;stroke-miterlimit:4;stroke-dasharray:none;stroke-opacity:1" id="path76" />
  <path d="M 362.12891,197.5108 C 337.57379,197.47536 317.58954,217.35332 317.5541,241.94387" style="fill:none;stroke:#0000cc;stroke-width:0.80900002;stroke-linejoin:round;stroke-miterlimit:4;stroke-dasharray:none;stroke-opacity:1" id="path78" />
  <path d="M 389.58954,225.04229 C 389.62497,209.87694 377.32969,197.5108 362.12891,197.5108" style="fill:none;stroke:#0000cc;stroke-width:0.80900002;stroke-linejoin:round;stroke-miterlimit:4;stroke-dasharray:none;stroke-opacity:1" id="path80" />
  <path d="M 368.57773,225.00686 C 366.87694,225.00686 365.21158,225.68009 364.00686,226.92024 C 362.7667,228.12497 362.09347,229.79032 362.09347,231.49111" style="fill:none;stroke:#0033cc;stroke-width:0.80900002;stroke-linejoin:round;stroke-miterlimit:4;stroke-dasharray:none;stroke-opacity:1" id="path86" />
  <path d="M 372.58166,229.04623 C 372.58166,226.81395 370.81001,225.00686 368.57773,225.00686" style="fill:none;stroke:#0000cc;stroke-width:0.80900002;stroke-linejoin:round;stroke-miterlimit:4;stroke-dasharray:none;stroke-opacity:1" id="path88" />
  <path d="M 368.57773,229.04623 L 372.58166,229.04623" style="fill:none;stroke:#000000;stroke-width:0.80900002;stroke-linejoin:round;stroke-miterlimit:4;stroke-dasharray:none;stroke-opacity:1" id="path126" />
  <path d="M 372.58166,225.00686 L 372.58166,242.01473" style="fill:none;stroke:#000000;stroke-width:0.80900002;stroke-linejoin:round;stroke-miterlimit:4;stroke-dasharray:none;stroke-opacity:1" id="path114" />
  <path d="M 372.58166,242.01473 C 377.08166,242.01473 381.4045,240.24308 384.59347,237.0541 C 387.78245,233.86513 389.58954,229.54229 389.58954,225.04229" style="fill:none;stroke:#0000cc;stroke-width:0.80900002;stroke-linejoin:round;stroke-miterlimit:4;stroke-dasharray:none;stroke-opacity:1" id="path82" />
  <path d="M 362.09347,231.49111 C 362.05804,237.30213 366.77064,242.01473 372.58166,242.01473" style="fill:none;stroke:#0000cc;stroke-width:0.80900002;stroke-linejoin:round;stroke-miterlimit:4;stroke-dasharray:none;stroke-opacity:1" id="path84" />
</svg>
