<svg xmlns="http://www.w3.org/2000/svg" xmlns:xlink="http://www.w3.org/1999/xlink" width="275.209" height="183.449" viewBox="0 0 206.407 137.587"><defs><clipPath id="c"><path d="M202 44h4.406v6H202Zm0 0"/></clipPath><clipPath id="d"><path d="M50 0h156.406v137.586H50Zm0 0"/></clipPath><symbol id="a" overflow="visible"><path d="M3.328-3.016c.063-.25.297-1.171.985-1.171.046 0 .296 0 .5.125a.578.578 0 0 0-.47.546c0 .157.11.344.376.344a.546.546 0 0 0 .531-.578c0-.516-.578-.656-.922-.656-.578 0-.922.531-1.047.75-.25-.656-.781-.75-1.078-.75-1.031 0-1.61 1.281-1.61 1.531 0 .11.11.11.126.11.078 0 .11-.032.125-.11.344-1.063 1-1.313 1.344-1.313.187 0 .53.094.53.672 0 .313-.171.97-.53 2.375-.157.61-.516 1.032-.954 1.032-.062 0-.28 0-.5-.125.25-.063.47-.266.47-.547 0-.266-.22-.344-.36-.344-.313 0-.547.25-.547.578 0 .453.484.656.922.656.672 0 1.031-.703 1.047-.75.125.36.484.75 1.078.75 1.031 0 1.594-1.28 1.594-1.53 0-.11-.079-.11-.11-.11-.094 0-.11.047-.14.11-.329 1.077-1 1.312-1.313 1.312-.39 0-.547-.313-.547-.657 0-.218.047-.437.156-.875Zm0 0" style="stroke:none"/></symbol><symbol id="b" overflow="visible"><path d="M4.844-3.797c.047-.14.047-.156.047-.234 0-.172-.141-.266-.297-.266a.455.455 0 0 0-.344.203c-.016.063-.11.36-.14.547-.079.25-.141.531-.204.797L3.453-.953c-.031.14-.469.844-1.125.844-.5 0-.61-.438-.61-.813 0-.453.173-1.078.5-1.953.157-.406.204-.516.204-.719 0-.437-.313-.812-.813-.812-.953 0-1.312 1.453-1.312 1.531 0 .11.094.11.11.11.109 0 .109-.032.156-.188.28-.938.671-1.235 1.015-1.235.078 0 .25 0 .25.313 0 .25-.11.516-.172.703-.406 1.063-.578 1.625-.578 2.094 0 .89.625 1.187 1.219 1.187.39 0 .719-.171 1-.453-.125.516-.25 1.016-.64 1.547-.266.328-.641.625-1.095.625-.14 0-.593-.031-.765-.422.156 0 .297 0 .422-.125a.493.493 0 0 0 .203-.406c0-.313-.266-.344-.36-.344C.829.531.5.687.5 1.171c0 .5.438.876 1.063.876 1.015 0 2.046-.906 2.328-2.031Zm0 0" style="stroke:none"/></symbol></defs><path d="M-90.709 0H90.252" style="fill:none;stroke-width:.3985;stroke-linecap:butt;stroke-linejoin:miter;stroke:#000;stroke-opacity:1;stroke-miterlimit:10" transform="matrix(1 0 0 -1 90.908 132.122)"/><path d="M-1.195 1.595C-1.097.997.001.099.298 0 0-.101-1.097-.995-1.195-1.593" style="fill:none;stroke-width:.31879;stroke-linecap:round;stroke-linejoin:round;stroke:#000;stroke-opacity:1;stroke-miterlimit:10" transform="matrix(1 0 0 -1 181.16 132.122)"/><use xlink:href="#a" x="185.136" y="134.266" style="fill:#000;fill-opacity:1"/><path d="M-.002 0V118.6" style="fill:none;stroke-width:.3985;stroke-linecap:butt;stroke-linejoin:miter;stroke:#000;stroke-opacity:1;stroke-miterlimit:10" transform="matrix(1 0 0 -1 90.908 132.122)"/><path d="M-1.195 1.595C-1.097.998 0 .1.297.002 0-.1-1.097-.994-1.195-1.596" style="fill:none;stroke-width:.31879;stroke-linecap:round;stroke-linejoin:round;stroke:#000;stroke-opacity:1;stroke-miterlimit:10" transform="matrix(0 -1 -1 0 90.908 13.524)"/><use xlink:href="#b" x="88.287" y="7.61" style="fill:#000;fill-opacity:1"/><path d="M121.367 103.773a2.115 2.115 0 0 0-2.113-2.113 2.112 2.112 0 1 0 2.113 2.113ZM149.715 47.082a2.112 2.112 0 1 0-4.227 0 2.112 2.112 0 1 0 4.227 0Zm0 0" style="stroke:none;fill-rule:nonzero;fill:#000;fill-opacity:1"/><g clip-path="url(#c)"><path d="M206.41 47.082a2.112 2.112 0 1 0-2.113 2.113 2.115 2.115 0 0 0 2.113-2.113Zm0 0" style="stroke:none;fill-rule:nonzero;fill:#000;fill-opacity:1"/></g><g clip-path="url(#d)"><path d="M-.002 0s3.414 3.415 4.727 4.724C6.033 6.036 8.139 8.138 9.447 9.45c1.313 1.309 3.415 3.41 4.727 4.723 1.309 1.312 3.41 3.414 4.723 4.722 1.312 1.313 3.414 3.415 4.722 4.727 1.313 1.309 3.414 3.414 4.727 4.723 1.308 1.312 3.414 3.414 4.723 4.722l4.726 4.727c1.309 1.308 3.41 3.414 4.723 4.723 1.312 1.312 3.414 3.414 4.722 4.726 1.313 1.309 3.414 3.41 4.727 4.723 1.309 1.312 3.414 3.414 4.723 4.722l4.726 4.727c1.309 1.309 3.41 3.414 4.723 4.723 1.312 1.312 3.414 3.414 4.723 4.726 1.312 1.309 3.414 3.41 4.726 4.723 1.309 1.312 3.41 3.414 4.723 4.722 1.312 1.313 3.414 3.415 4.722 4.727 1.313 1.309 3.414 3.414 4.727 4.723 1.309 1.312 3.414 3.414 4.723 4.726 1.312 1.309 3.414 3.41 4.726 4.723 1.309 1.312 3.41 3.414 4.723 4.723 1.312 1.312 3.414 3.414 4.722 4.726 1.313 1.309 4.727 4.723 4.727 4.723" style="fill:none;stroke-width:2.83466;stroke-linecap:butt;stroke-linejoin:miter;stroke:#00f;stroke-opacity:.7;stroke-miterlimit:10" transform="matrix(1 0 0 -1 90.908 132.122)"/></g></svg>