<svg xmlns="http://www.w3.org/2000/svg" xmlns:xlink="http://www.w3.org/1999/xlink" width="264.827" height="243.869" viewBox="0 0 198.62 182.902"><defs><symbol id="a" overflow="visible"><path d="M3.328-3.016c.063-.25.297-1.171.985-1.171.046 0 .296 0 .5.125a.578.578 0 0 0-.47.546c0 .157.11.344.376.344a.546.546 0 0 0 .531-.578c0-.516-.578-.656-.922-.656-.578 0-.922.531-1.047.75-.25-.656-.781-.75-1.078-.75-1.031 0-1.61 1.281-1.61 1.531 0 .11.11.11.126.11.078 0 .11-.032.125-.11.344-1.063 1-1.313 1.344-1.313.187 0 .53.094.53.672 0 .313-.171.97-.53 2.375-.157.61-.516 1.032-.954 1.032-.062 0-.28 0-.5-.125.25-.063.47-.266.47-.547 0-.266-.22-.344-.36-.344-.313 0-.547.25-.547.578 0 .453.484.656.922.656.672 0 1.031-.703 1.047-.75.125.36.484.75 1.078.75 1.031 0 1.594-1.28 1.594-1.53 0-.11-.079-.11-.11-.11-.094 0-.11.047-.14.11-.329 1.077-1 1.312-1.313 1.312-.39 0-.547-.313-.547-.657 0-.218.047-.437.156-.875Zm0 0" style="stroke:none"/></symbol><symbol id="b" overflow="visible"><path d="M2.328-4.438c0-.187 0-.187-.203-.187-.453.438-1.078.438-1.36.438v.25c.157 0 .626 0 1-.188v3.547c0 .234 0 .328-.687.328H.812V0c.125 0 .985-.031 1.235-.031.219 0 1.094.031 1.25.031v-.25H3.03c-.703 0-.703-.094-.703-.328Zm0 0" style="stroke:none"/></symbol><symbol id="d" overflow="visible"><path d="M3.516-1.266H3.28c-.015.157-.094.563-.187.625-.047.047-.578.047-.688.047H1.125c.734-.64.984-.844 1.39-1.172.516-.406 1-.843 1-1.5 0-.843-.734-1.359-1.624-1.359-.86 0-1.454.61-1.454 1.25 0 .344.297.39.376.39.156 0 .359-.124.359-.374 0-.125-.047-.375-.406-.375.218-.485.687-.641 1.015-.641.703 0 1.063.547 1.063 1.11 0 .609-.438 1.078-.656 1.328L.516-.266C.437-.203.437-.187.437 0h2.876Zm0 0" style="stroke:none"/></symbol><clipPath id="c"><path d="M90 12h2v170.902h-2Zm0 0"/></clipPath></defs><path d="M-90.709-.001H90.252" style="fill:none;stroke-width:.3985;stroke-linecap:butt;stroke-linejoin:miter;stroke:#000;stroke-opacity:1;stroke-miterlimit:10" transform="matrix(1 0 0 -1 90.908 97.663)"/><path d="M-1.195 1.593C-1.097.995.001.1.298-.001 0-.1-1.097-.997-1.195-1.595" style="fill:none;stroke-width:.31879;stroke-linecap:round;stroke-linejoin:round;stroke:#000;stroke-opacity:1;stroke-miterlimit:10" transform="matrix(1 0 0 -1 181.16 97.663)"/><use xlink:href="#a" x="185.136" y="99.061" style="fill:#000;fill-opacity:1"/><use xlink:href="#b" x="190.83" y="100.555" style="fill:#000;fill-opacity:1"/><g clip-path="url(#c)"><path d="M-.002-85.04V84.58" style="fill:none;stroke-width:.3985;stroke-linecap:butt;stroke-linejoin:miter;stroke:#000;stroke-opacity:1;stroke-miterlimit:10" transform="matrix(1 0 0 -1 90.908 97.663)"/></g><path d="M-1.196 1.595C-1.095.998-.001.1.3.002-.001-.1-1.095-.994-1.196-1.596" style="fill:none;stroke-width:.31879;stroke-linecap:round;stroke-linejoin:round;stroke:#000;stroke-opacity:1;stroke-miterlimit:10" transform="matrix(0 -1 -1 0 90.908 13.08)"/><use xlink:href="#a" x="85.826" y="7.61" style="fill:#000;fill-opacity:1"/><use xlink:href="#d" x="91.52" y="9.104" style="fill:#000;fill-opacity:1"/><path d="M93.02 40.969a2.112 2.112 0 1 0-4.227 0 2.112 2.112 0 1 0 4.227 0ZM36.328 97.664a2.112 2.112 0 1 0-4.226 0 2.112 2.112 0 1 0 4.226 0Zm0 0" style="stroke:none;fill-rule:nonzero;fill:#ff8000;fill-opacity:1"/><path d="M121.367 126.012a2.116 2.116 0 0 0-2.113-2.117 2.116 2.116 0 0 0 0 4.23c1.168 0 2.113-.95 2.113-2.113Zm0 0" style="stroke:none;fill-rule:nonzero;fill:#00f;fill-opacity:1"/></svg>