<svg xmlns="http://www.w3.org/2000/svg" xmlns:xlink="http://www.w3.org/1999/xlink" width="316.637" height="201.076" viewBox="0 0 237.478 150.807"><defs><symbol id="a" overflow="visible"><path d="M.875-.594c-.031.156-.094.39-.094.438 0 .172.14.265.297.265a.414.414 0 0 0 .375-.28c.016-.032.344-1.391.39-1.579.079-.328.266-1.016.313-1.297.047-.125.328-.594.563-.812.078-.063.375-.329.797-.329.265 0 .406.125.421.125-.296.047-.515.282-.515.547 0 .157.11.344.375.344s.547-.234.547-.594c0-.343-.313-.64-.828-.64-.641 0-1.079.484-1.266.765-.094-.453-.453-.765-.922-.765-.453 0-.64.39-.734.562-.172.344-.297.938-.297.969 0 .11.094.11.11.11.109 0 .109-.016.171-.235.172-.703.375-1.188.735-1.188.156 0 .296.079.296.454 0 .218-.03.328-.156.843Zm0 0" style="stroke:none"/></symbol><symbol id="b" overflow="visible"><path d="M1.86-2.297c.296 0 1.03-.031 1.53-.234.704-.297.75-.89.75-1.031 0-.438-.374-.844-1.062-.844-1.11 0-2.625.968-2.625 2.718C.453-.671 1.047.11 2.031.11c1.422 0 2.25-1.062 2.25-1.171 0-.063-.047-.141-.11-.141-.062 0-.077.031-.14.11-.781.984-1.875.984-1.984.984-.781 0-.875-.844-.875-1.157 0-.125.016-.421.156-1.03Zm-.47-.219c.391-1.515 1.423-1.671 1.688-1.671.453 0 .735.296.735.625 0 1.046-1.594 1.046-2.016 1.046Zm0 0" style="stroke:none"/></symbol><symbol id="c" overflow="visible"><path d="M3.89-3.734c-.265.015-.468.234-.468.453 0 .14.094.297.312.297.22 0 .454-.172.454-.563 0-.453-.422-.86-1.188-.86-1.313 0-1.688 1.016-1.688 1.454 0 .781.735.922 1.032.984.515.11 1.031.219 1.031.766 0 .25-.219 1.094-1.422 1.094-.14 0-.906 0-1.14-.532.39.047.64-.25.64-.53 0-.22-.172-.345-.375-.345-.266 0-.562.204-.562.657 0 .562.578.968 1.421.968 1.625 0 2.016-1.203 2.016-1.656a.97.97 0 0 0-.312-.719c-.266-.28-.563-.343-1-.421-.36-.079-.75-.157-.75-.61 0-.281.234-.89 1.109-.89.25 0 .75.078.89.453Zm0 0" style="stroke:none"/></symbol><symbol id="e" overflow="visible"><path d="M3.328-3.016c.063-.25.297-1.171.985-1.171.046 0 .296 0 .5.125a.578.578 0 0 0-.47.546c0 .157.11.344.376.344a.546.546 0 0 0 .531-.578c0-.516-.578-.656-.922-.656-.578 0-.922.531-1.047.75-.25-.656-.781-.75-1.078-.75-1.031 0-1.61 1.281-1.61 1.531 0 .11.11.11.126.11.078 0 .11-.032.125-.11.344-1.063 1-1.313 1.344-1.313.187 0 .53.094.53.672 0 .313-.171.97-.53 2.375-.157.61-.516 1.032-.954 1.032-.062 0-.28 0-.5-.125.25-.063.47-.266.47-.547 0-.266-.22-.344-.36-.344-.313 0-.547.25-.547.578 0 .453.484.656.922.656.672 0 1.031-.703 1.047-.75.125.36.484.75 1.078.75 1.031 0 1.594-1.28 1.594-1.53 0-.11-.079-.11-.11-.11-.094 0-.11.047-.14.11-.329 1.077-1 1.312-1.313 1.312-.39 0-.547-.313-.547-.657 0-.218.047-.437.156-.875Zm0 0" style="stroke:none"/></symbol><symbol id="f" overflow="visible"><path d="M2.031-.016c0-.656-.25-1.046-.64-1.046a.517.517 0 0 0-.532.53c0 .266.204.532.532.532a.58.58 0 0 0 .343-.125c.032-.031.047-.031.047-.031.016 0 .016 0 .016.14 0 .75-.344 1.344-.672 1.672-.11.11-.11.125-.11.157 0 .078.048.109.094.109.11 0 .922-.766.922-1.938Zm0 0" style="stroke:none"/></symbol><symbol id="g" overflow="visible"><path d="M4.844-3.797c.047-.14.047-.156.047-.234 0-.172-.141-.266-.297-.266a.455.455 0 0 0-.344.203c-.016.063-.11.36-.14.547-.079.25-.141.531-.204.797L3.453-.953c-.031.14-.469.844-1.125.844-.5 0-.61-.438-.61-.813 0-.453.173-1.078.5-1.953.157-.406.204-.516.204-.719 0-.437-.313-.812-.813-.812-.953 0-1.312 1.453-1.312 1.531 0 .11.094.11.11.11.109 0 .109-.032.156-.188.28-.938.671-1.235 1.015-1.235.078 0 .25 0 .25.313 0 .25-.11.516-.172.703-.406 1.063-.578 1.625-.578 2.094 0 .89.625 1.187 1.219 1.187.39 0 .719-.171 1-.453-.125.516-.25 1.016-.64 1.547-.266.328-.641.625-1.095.625-.14 0-.593-.031-.765-.422.156 0 .297 0 .422-.125a.493.493 0 0 0 .203-.406c0-.313-.266-.344-.36-.344C.829.531.5.687.5 1.171c0 .5.438.876 1.063.876 1.015 0 2.046-.906 2.328-2.031Zm0 0" style="stroke:none"/></symbol><symbol id="h" overflow="visible"><path d="M4.61-3.375c.046-.219.14-.594.14-.656 0-.172-.14-.266-.281-.266a.414.414 0 0 0-.375.281c-.032.063-.5 1.97-.563 2.235a2.336 2.336 0 0 0-.094.656c0 .11 0 .125.016.172-.234.531-.531.844-.922.844-.797 0-.797-.735-.797-.907 0-.312.047-.703.516-1.937.11-.297.172-.438.172-.64a.797.797 0 0 0-.813-.813C.656-4.406.297-2.953.297-2.875c0 .11.094.11.11.11.109 0 .109-.032.156-.188.28-.922.656-1.235 1.015-1.235.094 0 .25.016.25.329 0 .25-.11.53-.187.703-.438 1.172-.547 1.625-.547 2.015C1.094-.234 1.75.11 2.5.11c.172 0 .64 0 1.031-.703.266.64.953.703 1.25.703.75 0 1.188-.625 1.453-1.218.329-.782.657-2.125.657-2.594 0-.547-.266-.703-.438-.703-.25 0-.5.265-.5.484 0 .125.063.188.14.266.11.11.36.36.36.844 0 .343-.281 1.312-.547 1.828-.25.53-.61.875-1.093.875-.47 0-.735-.297-.735-.875 0-.266.063-.579.11-.72Zm0 0" style="stroke:none"/></symbol><symbol id="j" overflow="visible"><path d="M3.734-6.031c.079-.36.11-.469 1.047-.469.297 0 .375 0 .375-.188 0-.125-.11-.125-.156-.125-.328 0-1.14.032-1.469.032-.297 0-1.031-.032-1.328-.032-.062 0-.187 0-.187.204 0 .109.093.109.28.109.017 0 .204 0 .376.016.172.03.265.03.265.171 0 .032 0 .063-.03.188L1.561-.781c-.093.39-.109.469-.906.469-.172 0-.265 0-.265.203C.39 0 .484 0 .656 0h4.625c.235 0 .235 0 .297-.172l.797-2.156c.031-.11.031-.125.031-.14 0-.032-.031-.11-.11-.11-.093 0-.109.062-.171.219-.344.906-.781 2.046-2.5 2.046H2.469c-.11-.015-.14-.03-.14-.109 0-.031 0-.047.046-.219Zm0 0" style="stroke:none"/></symbol><symbol id="k" overflow="visible"><path d="M4.672-2.719c0-1.047-.688-1.687-1.594-1.687C1.75-4.406.406-2.984.406-1.578.406-.594 1.078.109 2 .109c1.328 0 2.672-1.375 2.672-2.828ZM2.016-.109c-.438 0-.875-.313-.875-1.094 0-.484.265-1.563.578-2.063.5-.765 1.078-.921 1.36-.921.577 0 .874.484.874 1.078 0 .39-.203 1.437-.578 2.078-.36.578-.906.922-1.36.922Zm0 0" style="stroke:none"/></symbol><symbol id="d" overflow="visible"><path d="M3.297 2.39c0-.03 0-.046-.172-.218C1.891.922 1.562-.968 1.562-2.5c0-1.734.375-3.469 1.61-4.703.125-.125.125-.14.125-.172 0-.078-.031-.11-.094-.11-.11 0-1 .688-1.594 1.954C1.11-4.438.984-3.328.984-2.5c0 .781.11 1.984.657 3.125C2.25 1.844 3.094 2.5 3.203 2.5c.063 0 .094-.031.094-.11Zm0 0" style="stroke:none"/></symbol><symbol id="i" overflow="visible"><path d="M2.875-2.5c0-.766-.11-1.969-.656-3.11C1.625-6.827.766-7.483.672-7.483a.107.107 0 0 0-.11.109c0 .031 0 .047.188.234.984.985 1.547 2.563 1.547 4.641 0 1.719-.36 3.469-1.594 4.719-.14.125-.14.14-.14.172 0 .062.046.109.109.109.094 0 1-.688 1.578-1.953.516-1.094.625-2.203.625-3.047Zm0 0" style="stroke:none"/></symbol><symbol id="s" overflow="visible"><path d="M4.578-3.188c0-.796-.047-1.593-.39-2.328C3.733-6.484 2.905-6.64 2.5-6.64c-.61 0-1.328.266-1.75 1.188-.313.687-.36 1.469-.36 2.266 0 .75.032 1.64.454 2.406a1.83 1.83 0 0 0 1.64 1c.532 0 1.297-.203 1.735-1.157.312-.687.36-1.468.36-2.25ZM2.484 0c-.39 0-.984-.25-1.156-1.203-.11-.594-.11-1.516-.11-2.11 0-.64 0-1.296.079-1.828.187-1.187.937-1.28 1.187-1.28.329 0 .985.187 1.172 1.171.11.563.11 1.313.11 1.938 0 .75 0 1.421-.11 2.062C3.5-.297 2.937 0 2.484 0Zm0 0" style="stroke:none"/></symbol><symbol id="l" overflow="visible"><path d="M2.64-2.922c0-.125 0-.187-.093-.187-.031 0-.047 0-.14.078-.016.015-.079.078-.126.11-.219-.142-.469-.188-.734-.188-1 0-1.234.53-1.234.875 0 .218.093.406.265.546.266.22.531.266.969.344.344.063.906.157.906.625 0 .266-.187.594-.86.594-.671 0-.905-.438-1.03-.906C.53-1.125.53-1.156.438-1.156c-.126 0-.126.047-.126.187v.86c0 .109 0 .171.094.171.063 0 .203-.14.344-.296.297.296.672.296.844.296.906 0 1.25-.484 1.25-.968a.823.823 0 0 0-.313-.64c-.265-.25-.578-.313-.828-.345-.547-.109-1-.187-1-.562 0-.219.188-.485.844-.485.812 0 .844.563.86.766 0 .078.093.078.109.078.125 0 .125-.047.125-.187Zm0 0" style="stroke:none"/></symbol><symbol id="m" overflow="visible"><path d="M3.531-3.078h-.219l-.25.61c-.218-.329-.562-.61-1.062-.61-.89 0-1.672.687-1.672 1.578 0 .875.734 1.563 1.61 1.563.562 0 .859-.297 1.03-.47V.798c0 .297-.062.297-.515.297v.265c.016 0 .5-.03.797-.03.25 0 .734.015.797.03v-.265c-.453 0-.516 0-.516-.297ZM3-1c0 .125 0 .156-.094.328-.219.344-.562.547-.922.547-.578 0-1.03-.625-1.03-1.36 0-.827.546-1.359 1.109-1.359.578 0 .937.563.937.953Zm0 0" style="stroke:none"/></symbol><symbol id="n" overflow="visible"><path d="M2.516-3v.25c.468 0 .515.047.515.39v1.204c0 .61-.39 1.031-.922 1.031-.625 0-.656-.297-.656-.656v-2.297L.375-3v.25c.531 0 .531.031.531.64v1.047c0 .485 0 1.125 1.156 1.125.157 0 .657 0 1-.578v.579L4.11 0v-.25c-.468 0-.515-.047-.515-.39v-2.438Zm0 0" style="stroke:none"/></symbol><symbol id="o" overflow="visible"><path d="M3.11-1.875c0-.36 0-.625-.329-.89C2.5-3 2.171-3.11 1.75-3.11c-.656 0-1.125.25-1.125.671 0 .235.156.344.344.344a.32.32 0 0 0 .328-.328.319.319 0 0 0-.25-.312c.25-.172.656-.172.687-.172.391 0 .829.25.829.844v.203c-.391.015-.844.046-1.36.234-.625.219-.812.61-.812.922 0 .594.718.765 1.218.765.547 0 .875-.312 1.032-.578.015.282.203.547.53.547.017 0 .688 0 .688-.656v-.39h-.234v.374c0 .079 0 .407-.266.407-.25 0-.25-.329-.25-.407Zm-.547.89c0 .672-.594.86-.907.86-.36 0-.687-.234-.687-.578 0-.39.328-.922 1.594-.969Zm0 0" style="stroke:none"/></symbol><symbol id="p" overflow="visible"><path d="M1.39-1.594c0-.578.266-1.281.938-1.281a.325.325 0 0 0-.125.25c0 .234.188.313.313.313.171 0 .328-.11.328-.313 0-.234-.235-.453-.563-.453-.344 0-.734.219-.937.75v-.75L.344-3v.25c.469 0 .515.047.515.39v1.813C.86-.25.797-.25.344-.25V0c.031 0 .5-.031.797-.031.296 0 .593.015.906.031v-.25h-.14c-.516 0-.516-.078-.516-.313Zm0 0" style="stroke:none"/></symbol><symbol id="q" overflow="visible"><path d="M3.063-1.594c.156 0 .203 0 .203-.14 0-.625-.344-1.375-1.391-1.375a1.59 1.59 0 0 0-1.61 1.578c0 .89.782 1.593 1.704 1.593.937 0 1.297-.75 1.297-.906 0-.015-.016-.094-.125-.094-.094 0-.11.047-.125.11-.22.562-.75.672-1 .672-.329 0-.641-.14-.844-.406-.266-.329-.266-.75-.266-1.032ZM.905-1.766c.078-.984.703-1.14.969-1.14.86 0 .89.969.906 1.14Zm0 0" style="stroke:none"/></symbol><symbol id="r" overflow="visible"><path d="M2.484-4.766v.25c.47 0 .516.063.516.391v1.453a1.371 1.371 0 0 0-.969-.406c-.937 0-1.703.703-1.703 1.578 0 .875.734 1.563 1.61 1.563.578 0 .921-.297 1.03-.422v.421L4.048 0v-.25c-.469 0-.516-.047-.516-.39v-4.204ZM2.97-.734c-.172.328-.531.609-.985.609-.39 0-.671-.234-.812-.438-.14-.203-.219-.484-.219-.921 0-.172 0-.688.281-1.016.282-.313.625-.375.829-.375.328 0 .64.156.828.406.078.11.078.11.078.25Zm0 0" style="stroke:none"/></symbol><clipPath id="t"><path d="M0 0h188v150.809H0Zm0 0"/></clipPath></defs><path d="M-90.709 0H90.252" style="fill:none;stroke-width:.3985;stroke-linecap:butt;stroke-linejoin:miter;stroke:#000;stroke-opacity:1;stroke-miterlimit:10" transform="matrix(1 0 0 -1 90.908 135.554)"/><path d="M-1.195 1.593C-1.097.995.001.101.298 0 0-.098-1.097-.997-1.195-1.594" style="fill:none;stroke-width:.31879;stroke-linecap:round;stroke-linejoin:round;stroke:#000;stroke-opacity:1;stroke-miterlimit:10" transform="matrix(1 0 0 -1 181.16 135.554)"/><use xlink:href="#a" x="185.136" y="138.044" style="fill:#000;fill-opacity:1"/><g style="fill:#000;fill-opacity:1"><use xlink:href="#b" x="189.91" y="138.044"/><use xlink:href="#c" x="194.549" y="138.044"/></g><use xlink:href="#d" x="199.216" y="138.044" style="fill:#000;fill-opacity:1"/><g style="fill:#000;fill-opacity:1"><use xlink:href="#e" x="203.091" y="138.044"/><use xlink:href="#f" x="208.785" y="138.044"/></g><use xlink:href="#g" x="213.216" y="138.044" style="fill:#000;fill-opacity:1"/><use xlink:href="#f" x="218.459" y="138.044" style="fill:#000;fill-opacity:1"/><use xlink:href="#h" x="222.881" y="138.044" style="fill:#000;fill-opacity:1"/><use xlink:href="#i" x="230.283" y="138.044" style="fill:#000;fill-opacity:1"/><path d="M-.002 0v118.597" style="fill:none;stroke-width:.3985;stroke-linecap:butt;stroke-linejoin:miter;stroke:#000;stroke-opacity:1;stroke-miterlimit:10" transform="matrix(1 0 0 -1 90.908 135.554)"/><path d="M-1.197 1.595C-1.095.998 0 .1.3.002-.001-.1-1.095-.994-1.197-1.596" style="fill:none;stroke-width:.31879;stroke-linecap:round;stroke-linejoin:round;stroke:#000;stroke-opacity:1;stroke-miterlimit:10" transform="matrix(0 -1 -1 0 90.908 16.956)"/><g style="fill:#000;fill-opacity:1"><use xlink:href="#j" x="66.8" y="10.129"/><use xlink:href="#k" x="73.581" y="10.129"/><use xlink:href="#c" x="78.409" y="10.129"/><use xlink:href="#c" x="83.08" y="10.129"/></g><g style="fill:#000;fill-opacity:1"><use xlink:href="#l" x="87.749" y="11.623"/><use xlink:href="#m" x="90.905" y="11.623"/><use xlink:href="#n" x="95.091" y="11.623"/><use xlink:href="#o" x="99.491" y="11.623"/><use xlink:href="#p" x="103.463" y="11.623"/><use xlink:href="#q" x="106.576" y="11.623"/><use xlink:href="#r" x="110.118" y="11.623"/></g><path d="M-.002 1.992v-3.985" style="fill:none;stroke-width:.3985;stroke-linecap:butt;stroke-linejoin:miter;stroke:#000;stroke-opacity:1;stroke-miterlimit:10" transform="matrix(1 0 0 -1 90.908 135.554)"/><use xlink:href="#s" x="88.417" y="147.486" style="fill:#000;fill-opacity:1"/><g clip-path="url(#t)"><path d="M-56.693 113.386s3.414-13.3 4.722-18.11a827.01 827.01 0 0 1 4.727-16.534c1.309-4.368 3.41-11.028 4.723-14.958 1.312-3.933 3.414-9.89 4.722-13.386 1.313-3.496 3.414-8.754 4.727-11.813 1.309-3.058 3.414-7.613 4.723-10.234 1.312-2.621 3.414-6.477 4.726-8.664 1.309-2.184 3.41-5.336 4.723-7.086 1.312-1.746 3.414-4.2 4.722-5.512 1.313-1.312 3.415-3.062 4.727-3.937 1.309-.875 3.414-1.926 4.723-2.364C-3.416.351-1.314 0-.002 0c1.309 0 3.41.352 4.723.785 1.312.438 3.414 1.489 4.723 2.364 1.312.87 3.414 2.625 4.726 3.933 1.309 1.313 3.414 3.762 4.723 5.512 1.312 1.746 3.414 4.898 4.726 7.082 1.309 2.188 3.41 6.04 4.723 8.66 1.309 2.621 3.414 7.176 4.723 10.235 1.312 3.058 3.414 8.312 4.726 11.808 1.309 3.496 3.41 9.453 4.723 13.383a610.502 610.502 0 0 1 4.723 14.957 819.617 819.617 0 0 1 4.726 16.535c1.309 4.805 4.723 18.106 4.723 18.106" style="fill:none;stroke-width:2.83466;stroke-linecap:butt;stroke-linejoin:miter;stroke:#00f;stroke-opacity:.7;stroke-miterlimit:10" transform="matrix(1 0 0 -1 90.908 135.554)"/></g></svg>