<?xml version="1.0" standalone="no"?><!DOCTYPE svg PUBLIC "-//W3C//DTD SVG 1.1//EN"
  "http://www.w3.org/Graphics/SVG/1.1/DTD/svg11.dtd">
<svg t="1564015138507" class="icon" viewBox="0 0 1082 1024" version="1.1" xmlns="http://www.w3.org/2000/svg" p-id="3211"
     width="211.328125" height="200">
  <defs>
    <style type="text/css"></style>
  </defs>
  <path
    d="M20.727172 982.545657h36.27255a20.727172 20.727172 0 1 1 0 41.454343H20.727172a20.727172 20.727172 0 0 1 0-41.454343z m956.040786 0h85.499582a20.727172 20.727172 0 0 1 0 41.454343h-85.499582a20.727172 20.727172 0 0 1 0-41.454343z m-829.086861 0h748.769071a20.727172 20.727172 0 0 1 0 41.454343H147.681097a20.727172 20.727172 0 0 1 0-41.454343zM245.707664 0h93.272272a33.681654 33.681654 0 0 1 33.681653 33.681654v130.84027a98.454065 98.454065 0 0 1-98.454064 98.454065h-121.772133a33.681654 33.681654 0 0 1-33.681654-33.681654V126.953926a126.953926 126.953926 0 0 1 126.953926-126.953926zM839.022949 0h-93.272272a33.681654 33.681654 0 0 0-33.681654 33.681654v130.84027a98.454065 98.454065 0 0 0 98.454065 98.454065h121.772133a33.681654 33.681654 0 0 0 33.681653-33.681654V126.953926a126.953926 126.953926 0 0 0-126.953925-126.953926z"
    fill="#261D50" p-id="3212" data-spm-anchor-id="a313x.7781069.0.i1" class="selected"></path>
  <path
    d="M276.798421 28.499861h176.180958v803.177896h-176.180958a129.544822 129.544822 0 0 1-129.544822-129.544822V158.044683a129.544822 129.544822 0 0 1 129.544822-129.544822z"
    fill="#00B7D6" p-id="3213"></path>
  <path
    d="M463.342965 842.041343h-186.544544a140.063862 140.063862 0 0 1-139.908408-139.908408V158.044683a140.063862 140.063862 0 0 1 139.908408-139.908408h186.544544z m-186.544544-803.177896a119.310781 119.310781 0 0 0-119.181236 119.181236v544.088252a119.310781 119.310781 0 0 0 119.181236 119.181236h165.817372V38.863447z"
    fill="#261D50" p-id="3214"></path>
  <path
    d="M300.116489 462.475015m-32.386205 0a32.386206 32.386206 0 1 0 64.772411 0 32.386206 32.386206 0 1 0-64.772411 0Z"
    fill="#261D50" p-id="3215"></path>
  <path
    d="M228.866837 535.020115m-32.386205 0a32.386206 32.386206 0 1 0 64.772411 0 32.386206 32.386206 0 1 0-64.772411 0Z"
    fill="#261D50" p-id="3216"></path>
  <path
    d="M300.116489 607.565215m-32.386205 0a32.386206 32.386206 0 1 0 64.772411 0 32.386206 32.386206 0 1 0-64.772411 0Z"
    fill="#261D50" p-id="3217"></path>
  <path
    d="M373.957038 535.020115m-32.386206 0a32.386206 32.386206 0 1 0 64.772411 0 32.386206 32.386206 0 1 0-64.772411 0Z"
    fill="#261D50" p-id="3218"></path>
  <path
    d="M301.411937 286.294057m-71.249652 0a71.249652 71.249652 0 1 0 142.499304 0 71.249652 71.249652 0 1 0-142.499304 0Z"
    fill="#261D50" p-id="3219"></path>
  <path
    d="M631.751233 28.499861h176.180958a129.544822 129.544822 0 0 1 129.544822 129.544822v544.088252a129.544822 129.544822 0 0 1-129.544822 129.544822h-176.180958z"
    fill="#FF6660" p-id="3220"></path>
  <path
    d="M807.932191 841.536118h-186.544543v-823.905068h186.544543a140.063862 140.063862 0 0 1 139.908408 139.908408v228.322749a10.363586 10.363586 0 1 1-20.727171 0V157.539458a119.310781 119.310781 0 0 0-119.181237-119.181236h-165.817372v782.450725h165.817372a119.310781 119.310781 0 0 0 119.181237-119.181237v-146.385648a10.363586 10.363586 0 1 1 20.727171 0v146.385648a140.063862 140.063862 0 0 1-139.908408 139.908408z m129.544822-327.98158a10.363586 10.363586 0 0 1-10.363585-10.363586v-83.375047a10.363586 10.363586 0 0 1 20.727171 0v83.375047a10.363586 10.363586 0 0 1-10.363586 10.363586z"
    fill="#261D50" p-id="3221"></path>
  <path
    d="M780.727779 252.612403m-32.386206 0a32.386206 32.386206 0 1 0 64.772411 0 32.386206 32.386206 0 1 0-64.772411 0Z"
    fill="#261D50" p-id="3222"></path>
  <path
    d="M709.478127 325.157503m-32.386206 0a32.386206 32.386206 0 1 0 64.772411 0 32.386206 32.386206 0 1 0-64.772411 0Z"
    fill="#261D50" p-id="3223"></path>
  <path
    d="M780.727779 397.702604m-32.386206 0a32.386206 32.386206 0 1 0 64.772411 0 32.386206 32.386206 0 1 0-64.772411 0Z"
    fill="#261D50" p-id="3224"></path>
  <path
    d="M854.568327 325.157503m-32.386205 0a32.386206 32.386206 0 1 0 64.772411 0 32.386206 32.386206 0 1 0-64.772411 0Z"
    fill="#261D50" p-id="3225"></path>
  <path
    d="M782.023227 573.883561m-71.249652 0a71.249652 71.249652 0 1 0 142.499304 0 71.249652 71.249652 0 1 0-142.499304 0Z"
    fill="#261D50" p-id="3226"></path>
</svg>
