<?xml version="1.0" standalone="no"?><!DOCTYPE svg PUBLIC "-//W3C//DTD SVG 1.1//EN" "http://www.w3.org/Graphics/SVG/1.1/DTD/svg11.dtd"><svg t="1564015244461" class="icon" viewBox="0 0 1024 1024" version="1.1" xmlns="http://www.w3.org/2000/svg" p-id="3344" xmlns:xlink="http://www.w3.org/1999/xlink" width="200" height="200"><defs><style type="text/css"></style></defs><path d="M294.8 878.8H221c-79.2 0-143.6-64.4-143.6-143.6V306.9c0-79.2 64.4-143.6 143.6-143.6h73.9c5.5 0 10 4.5 10 10v695.5c-0.1 5.5-4.5 10-10.1 10zM221 183.3c-68.1 0-123.6 55.4-123.6 123.6v428.3c0 68.1 55.4 123.6 123.6 123.6h63.9V183.3H221zM767.9 878.8H694c-5.5 0-10-4.5-10-10V173.3c0-5.5 4.5-10 10-10h73.9c79.2 0 143.6 64.4 143.6 143.6v428.3c0 79.2-64.4 143.6-143.6 143.6z m-63.8-20H768c68.1 0 123.6-55.4 123.6-123.6V306.9c0-68.1-55.4-123.6-123.6-123.6h-63.9v675.5z" fill="#0071BC" p-id="3345"></path><path d="M191.1 413.6c-35.3 0-63.9-28.7-63.9-63.9s28.7-63.9 63.9-63.9 63.9 28.7 63.9 63.9-28.6 63.9-63.9 63.9z m0-107.9c-24.2 0-43.9 19.7-43.9 43.9s19.7 43.9 43.9 43.9 43.9-19.7 43.9-43.9-19.7-43.9-43.9-43.9zM797.8 698.4c-35.3 0-63.9-28.7-63.9-63.9s28.7-63.9 63.9-63.9 63.9 28.7 63.9 63.9-28.7 63.9-63.9 63.9z m0-107.9c-24.2 0-43.9 19.7-43.9 43.9s19.7 43.9 43.9 43.9 43.9-19.7 43.9-43.9-19.7-43.9-43.9-43.9z" fill="#F15A24" p-id="3346"></path><path d="M694.1 878.8H294.8c-5.5 0-10-4.5-10-10V173.3c0-5.5 4.5-10 10-10H694c5.5 0 10 4.5 10 10v695.5c0.1 5.5-4.4 10-9.9 10z m-389.3-20H684V183.3H304.8v675.5z" fill="#0071BC" p-id="3347"></path></svg>