<?xml version="1.0" standalone="no"?><!DOCTYPE svg PUBLIC "-//W3C//DTD SVG 1.1//EN"
  "http://www.w3.org/Graphics/SVG/1.1/DTD/svg11.dtd">
<svg t="1564015354832" class="icon" viewBox="0 0 1024 1024" version="1.1" xmlns="http://www.w3.org/2000/svg" p-id="6002"
     width="200" height="200">
  <defs>
    <style type="text/css"></style>
  </defs>
  <path
    d="M469.333333 576c0-6.4-4.266667-12.8-8.533333-17.066667l0 0-170.666667-128 0 0C285.866667 428.8 281.6 426.666667 277.333333 426.666667c-12.8 0-21.333333 8.533333-21.333333 21.333333 0 6.4 4.266667 12.8 8.533333 17.066667l0 0 147.2 110.933333-147.2 110.933333 0 0C260.266667 691.2 256 697.6 256 704c0 12.8 8.533333 21.333333 21.333333 21.333333 4.266667 0 8.533333-2.133333 12.8-4.266667l0 0 170.666667-128 0 0C465.066667 588.8 469.333333 582.4 469.333333 576zM896 42.666667 128 42.666667C81.066667 42.666667 42.666667 81.066667 42.666667 128l0 768c0 46.933333 38.4 85.333333 85.333333 85.333333l768 0c46.933333 0 85.333333-38.4 85.333333-85.333333L981.333333 128C981.333333 81.066667 942.933333 42.666667 896 42.666667zM938.666667 896c0 23.466667-19.2 42.666667-42.666667 42.666667L128 938.666667c-23.466667 0-42.666667-19.2-42.666667-42.666667L85.333333 128c0-23.466667 19.2-42.666667 42.666667-42.666667l768 0c23.466667 0 42.666667 19.2 42.666667 42.666667L938.666667 896zM618.666667 725.333333l-128 0c-12.8 0-21.333333 8.533333-21.333333 21.333333 0 12.8 8.533333 21.333333 21.333333 21.333333l128 0c12.8 0 21.333333-8.533333 21.333333-21.333333C640 733.866667 631.466667 725.333333 618.666667 725.333333z"
    p-id="6003"></path>
</svg>
