<?xml version="1.0" encoding="utf-8"?>
<!-- Generator: Adobe Illustrator 19.2.1, SVG Export Plug-In . SVG Version: 6.00 Build 0)  -->
<svg version="1.1" id="图层_1" 
	xmlns="http://www.w3.org/2000/svg" 
	xmlns:xlink="http://www.w3.org/1999/xlink" x="0px" y="0px" viewBox="0 0 1024 1024" style="enable-background:new 0 0 1024 1024;" xml:space="preserve">
	<style type="text/css">
	.st0{fill:#DD0000;}
	.st1{opacity:0.7;fill:#64B5F6;}
	.st3{fill:#424242;}
	.st4{fill:#FEF7EE;}
	.st5{fill:#FFEEDC;}
	.st6{opacity:0.48;}
	.st7{fill:none;stroke:#000000;stroke-width:5.4501;stroke-miterlimit:10;}
	.st8{opacity:0.7;}
	</style>
	<g>
		<g>
			<g>
				<g>
					<ellipse class="st3" cx="717.3" cy="435.3" rx="12.1" ry="42.7"/>
					<ellipse class="st3" cx="308" cy="435.3" rx="12.1" ry="42.7"/>
					<path class="st4" d="M720,458.4c-1.4,0-2.8,0.1-4.2,0.2v-59.5c0-62.1-50.8-112.9-112.9-112.9H422
					c-62.1,0-112.9,50.8-112.9,112.9v59.4c-1.2-0.1-2.4-0.2-3.7-0.2c-20.8,0-37.7,16.9-37.7,37.7c0,20.8,16.9,37.7,37.7,37.7
					c1.2,0,2.5-0.1,3.7-0.2v60.4c0,62.1,50.8,112.9,112.9,112.9h180.9c62.1,0,112.9-50.8,112.9-112.9v-60.4c1.4,0.2,2.8,0.2,4.2,0.2
					c20.8,0,37.7-16.9,37.7-37.7C757.7,475.3,740.8,458.4,720,458.4z"/>
					<path class="st5" d="M718.6,458.4c-1.4,0-2.8,0.1-4.2,0.2v-59.5c0-62.1-50.8-112.9-112.9-112.9h-25.7
					c62.1,0,112.9,50.8,112.9,112.9v59.5c1.4-0.2,2.8-0.2,4.2-0.2c20.8,0,37.7,16.9,37.7,37.7c0,20.8-16.9,37.7-37.7,37.7
					c-1.4,0-2.8-0.1-4.2-0.2v60.4c0,62.1-50.8,112.9-112.9,112.9h25.7c62.1,0,112.9-50.8,112.9-112.9v-60.4c1.4,0.2,2.8,0.2,4.2,0.2
					c20.8,0,37.7-16.9,37.7-37.7C756.3,475.3,739.4,458.4,718.6,458.4z"/>
					<path d="M797,284.2c0-26.1-11.1-49.6-28.9-66c-4.4-41.8-39.8-74.3-82.8-74.3c-6.2,0-12.3,0.7-18.2,2
					c-13.9-14.7-33.6-23.9-55.5-23.9c-7,0-13.7,0.9-20.1,2.7c-13.3-11.2-30.4-17.9-49.1-17.9c-17.4,0-33.5,5.8-46.3,15.7
					c-12.3-8.4-27.2-13.3-43.3-13.3c-21.8,0-41.5,9-55.5,23.6c-9.7-4-20.3-6.2-31.4-6.2c-37.9,0-69.8,25.7-79.3,60.6
					c-35,18-58.9,54.5-58.9,96.6c0,14.6,2.9,28.4,8.1,41.1c-1.1,5.7-1.7,11.6-1.7,17.6c0,49.4,40.1,89.5,89.5,89.5
					c14.1,0,27.4-3.3,39.2-9c15.7,8.9,33.9,14,53.3,14c30.1,0,57.3-12.2,76.9-32c14.6,10.2,32.4,16.2,51.6,16.2
					c29.9,0,56.4-14.5,72.8-36.9c15.8,25.7,44.2,42.8,76.5,42.8c49.6,0,89.9-40.2,89.9-89.9c0-2-0.1-4-0.2-6
					C792.2,317.4,797,301.4,797,284.2z"/>
					<g class="st6">
						<path class="st3" d="M798.9,281.2c0-26.1-11.1-49.6-28.9-66c-4.4-41.8-39.8-74.3-82.8-74.3c-4.3,0-8.5,0.3-12.6,1
						c37.1,5.7,66.1,35.8,70.1,73.3c17.8,16.4,28.9,39.9,28.9,66c0,17.1-4.8,33.1-13.1,46.8c0.1,2,0.2,4,0.2,6
						c0,45.3-33.6,82.8-77.2,89c4.1,0.6,8.4,0.9,12.7,0.9c49.6,0,89.9-40.2,89.9-89.9c0-2-0.1-4-0.2-6
						C794.1,314.3,798.9,298.3,798.9,281.2z"/>
					</g>
					<path class="st7" d="M798.6,284.2c0-26.1-11.1-49.6-28.9-66c-4.4-41.8-39.8-74.3-82.8-74.3c-6.2,0-12.3,0.7-18.2,2
					c-13.9-14.7-33.6-23.9-55.5-23.9c-7,0-13.7,0.9-20.1,2.7c-13.3-11.2-30.4-17.9-49.1-17.9c-17.4,0-33.5,5.8-46.3,15.7
					c-12.3-8.4-27.2-13.3-43.3-13.3c-21.8,0-41.5,9-55.5,23.6c-9.7-4-20.3-6.2-31.4-6.2c-37.9,0-69.8,25.7-79.3,60.6
					c-35,18-58.9,54.5-58.9,96.6c0,14.6,2.9,28.4,8.1,41.1c-1.1,5.7-1.7,11.6-1.7,17.6c0,39.7,25.9,73.4,61.8,85.1
					c-0.1,2.6-0.2,5.2-0.2,7.9c0,8.8,0.8,17,2.1,23.8c-17.3,3.5-30.3,18.7-30.3,37c0,20.8,16.9,37.7,37.7,37.7
					c1.2,0,2.5-0.1,3.7-0.2v60.4c0,62.1,50.8,112.9,112.9,112.9h180.9c62.1,0,112.9-50.8,112.9-112.9v-60.4c1.4,0.2,2.8,0.2,4.2,0.2
					c20.8,0,37.7-16.9,37.7-37.7c0-18.3-13-33.6-30.3-37c1.3-6.8,2-15,2-23.8c0-5.4-0.3-10.5-0.8-15.3
					c32.6-13.5,55.5-45.6,55.5-83.1c0-2-0.1-4-0.2-6C793.8,317.4,798.6,301.4,798.6,284.2z"/>
				</g>
			</g>
		</g>
		<circle cx="414.1" cy="487.1" r="30.5"/>
		<circle cx="619.3" cy="487.1" r="30.5"/>
		<rect x="474.3" y="594.2" class="st0" width="83.7" height="9.7"/>
		<rect x="309.8" y="489.8" width="4.5" height="17.1"/>
		<rect x="716.7" y="489.8" width="4.5" height="17.1"/>
	</g>
</svg>
